<svg width="19" height="18" viewBox="0 0 19 18" fill="none" xmlns="http://www.w3.org/2000/svg">
<path d="M14 13.8C15.0501 13.8 15.5751 13.8 15.9762 13.6256C16.329 13.4722 16.6159 13.2274 16.7956 12.9264C17 12.5841 17 12.1361 17 11.24V3.56C17 2.66392 17 2.21587 16.7956 1.87362C16.6159 1.57256 16.329 1.32779 15.9762 1.17439C15.5751 1 15.0501 1 14 1H8.75C7.6999 1 7.17485 1 6.77377 1.17439C6.42096 1.32779 6.13413 1.57256 5.95436 1.87362C5.75 2.21587 5.75 2.66392 5.75 3.56M5 17H10.25C11.3001 17 11.8251 17 12.2262 16.8256C12.579 16.6722 12.8659 16.4274 13.0456 16.1264C13.25 15.7841 13.25 15.3361 13.25 14.44V6.76C13.25 5.86392 13.25 5.41587 13.0456 5.07362C12.8659 4.77256 12.579 4.52779 12.2262 4.37439C11.8251 4.2 11.3001 4.2 10.25 4.2H5C3.9499 4.2 3.42485 4.2 3.02377 4.37439C2.67096 4.52779 2.38413 4.77256 2.20436 5.07362C2 5.41587 2 5.86392 2 6.76V14.44C2 15.3361 2 15.7841 2.20436 16.1264C2.38413 16.4274 2.67096 16.6722 3.02377 16.8256C3.42485 17 3.9499 17 5 17Z" stroke="#F2F2F2" stroke-width="1.5"/>
<path d="M14 13.8C15.0501 13.8 15.5751 13.8 15.9762 13.6256C16.329 13.4722 16.6159 13.2274 16.7956 12.9264C17 12.5841 17 12.1361 17 11.24V3.56C17 2.66392 17 2.21587 16.7956 1.87362C16.6159 1.57256 16.329 1.32779 15.9762 1.17439C15.5751 1 15.0501 1 14 1H8.75C7.6999 1 7.17485 1 6.77377 1.17439C6.42096 1.32779 6.13413 1.57256 5.95436 1.87362C5.75 2.21587 5.75 2.66392 5.75 3.56M5 17H10.25C11.3001 17 11.8251 17 12.2262 16.8256C12.579 16.6722 12.8659 16.4274 13.0456 16.1264C13.25 15.7841 13.25 15.3361 13.25 14.44V6.76C13.25 5.86392 13.25 5.41587 13.0456 5.07362C12.8659 4.77256 12.579 4.52779 12.2262 4.37439C11.8251 4.2 11.3001 4.2 10.25 4.2H5C3.9499 4.2 3.42485 4.2 3.02377 4.37439C2.67096 4.52779 2.38413 4.77256 2.20436 5.07362C2 5.41587 2 5.86392 2 6.76V14.44C2 15.3361 2 15.7841 2.20436 16.1264C2.38413 16.4274 2.67096 16.6722 3.02377 16.8256C3.42485 17 3.9499 17 5 17Z" stroke="url(#paint0_diamond_2065_478)" stroke-width="1.5"/>
<defs>
<radialGradient id="paint0_diamond_2065_478" cx="0" cy="0" r="1" gradientUnits="userSpaceOnUse" gradientTransform="translate(-5.98214 -22.75) rotate(65.2403) scale(54.8745 18.8184)">
<stop stop-color="#FFCA8C"/>
<stop offset="1" stop-color="#FF7337"/>
</radialGradient>
</defs>
</svg>
