<svg width="18" height="18" viewBox="0 0 18 18" fill="none" xmlns="http://www.w3.org/2000/svg">
<path d="M13.5 13.8C14.5501 13.8 15.0751 13.8 15.4762 13.6256C15.829 13.4722 16.1159 13.2274 16.2956 12.9264C16.5 12.5841 16.5 12.1361 16.5 11.24V3.56C16.5 2.66392 16.5 2.21587 16.2956 1.87362C16.1159 1.57256 15.829 1.32779 15.4762 1.17439C15.0751 1 14.5501 1 13.5 1H8.25C7.1999 1 6.67485 1 6.27377 1.17439C5.92096 1.32779 5.63413 1.57256 5.45436 1.87362C5.25 2.21587 5.25 2.66392 5.25 3.56M4.5 17H9.75C10.8001 17 11.3251 17 11.7262 16.8256C12.079 16.6722 12.3659 16.4274 12.5456 16.1264C12.75 15.7841 12.75 15.3361 12.75 14.44V6.76C12.75 5.86392 12.75 5.41587 12.5456 5.07362C12.3659 4.77256 12.079 4.52779 11.7262 4.37439C11.3251 4.2 10.8001 4.2 9.75 4.2H4.5C3.4499 4.2 2.92485 4.2 2.52377 4.37439C2.17096 4.52779 1.88413 4.77256 1.70436 5.07362C1.5 5.41587 1.5 5.86392 1.5 6.76V14.44C1.5 15.3361 1.5 15.7841 1.70436 16.1264C1.88413 16.4274 2.17096 16.6722 2.52377 16.8256C2.92485 17 3.4499 17 4.5 17Z" stroke="white" stroke-width="1.5"/>
</svg>
