<svg width="119" height="59" viewBox="0 0 119 59" fill="none" xmlns="http://www.w3.org/2000/svg">
<path d="M117.219 13.9496C118.093 17.2114 117.38 20.7776 115.258 24.4643C113.134 28.1535 109.617 31.9296 104.955 35.5698C95.6319 42.8488 81.8099 49.522 65.6973 53.8393C49.5846 58.1567 34.2778 59.2886 22.5644 57.6462C16.7066 56.8249 11.7726 55.3133 8.08905 53.1801C4.408 51.0483 2.00752 48.3164 1.13352 45.0546C0.259516 41.7927 0.972444 38.2266 3.09443 34.5399C5.21783 30.8507 8.73502 27.0746 13.3973 23.4344C22.7203 16.1554 36.5424 9.48222 52.655 5.16486C68.7676 0.847498 84.0744 -0.284384 95.7878 1.35796C101.646 2.17928 106.58 3.69091 110.263 5.82411C113.944 7.95591 116.345 10.6878 117.219 13.9496Z" stroke="#F2F2F2"/>
<path d="M117.219 13.9496C118.093 17.2114 117.38 20.7776 115.258 24.4643C113.134 28.1535 109.617 31.9296 104.955 35.5698C95.6319 42.8488 81.8099 49.522 65.6973 53.8393C49.5846 58.1567 34.2778 59.2886 22.5644 57.6462C16.7066 56.8249 11.7726 55.3133 8.08905 53.1801C4.408 51.0483 2.00752 48.3164 1.13352 45.0546C0.259516 41.7927 0.972444 38.2266 3.09443 34.5399C5.21783 30.8507 8.73502 27.0746 13.3973 23.4344C22.7203 16.1554 36.5424 9.48222 52.655 5.16486C68.7676 0.847498 84.0744 -0.284384 95.7878 1.35796C101.646 2.17928 106.58 3.69091 110.263 5.82411C113.944 7.95591 116.345 10.6878 117.219 13.9496Z" stroke="url(#paint0_diamond_11_212)"/>
<defs>
<radialGradient id="paint0_diamond_11_212" cx="0" cy="0" r="1" gradientUnits="userSpaceOnUse" gradientTransform="translate(-88.0317 -36.6312) rotate(25.7629) scale(245.129 109.312)">
<stop stop-color="#FFCA8C"/>
<stop offset="1" stop-color="#FF7337"/>
</radialGradient>
</defs>
</svg>
