<svg width="18" height="18" viewBox="0 0 18 18" fill="none" xmlns="http://www.w3.org/2000/svg">
<path d="M17 11.6246C17 15.6292 14.5455 17.3865 12.6489 17.9791C12.2444 18.1055 11.9786 17.632 12.2205 17.283C13.0459 16.092 14 14.2751 14 12.5658C14 10.7298 12.4587 8.56213 11.2551 7.22515C10.9799 6.91949 10.5 7.12173 10.485 7.53347C10.4353 8.89756 10.2209 10.7226 9.2964 12.1529C9.14759 12.3832 8.83171 12.4023 8.66216 12.187C8.37331 11.8202 8.08445 11.3671 7.79559 11.0092C7.64 10.8164 7.35879 10.8137 7.17932 10.9843C6.47961 11.6495 5.5 12.6868 5.5 13.9778C5.5 14.9089 5.94199 16.0679 6.3976 16.9654C6.6045 17.373 6.22066 17.8511 5.82633 17.6219C4.10523 16.6216 2 14.549 2 11.6246C2 8.66289 6.0409 4.56013 7.5838 0.68405C7.82726 0.0724187 8.57758 -0.214986 9.09944 0.184151C12.2599 2.6014 17 7.2741 17 11.6246Z" fill="#F2F2F2"/>
<path d="M17 11.6246C17 15.6292 14.5455 17.3865 12.6489 17.9791C12.2444 18.1055 11.9786 17.632 12.2205 17.283C13.0459 16.092 14 14.2751 14 12.5658C14 10.7298 12.4587 8.56213 11.2551 7.22515C10.9799 6.91949 10.5 7.12173 10.485 7.53347C10.4353 8.89756 10.2209 10.7226 9.2964 12.1529C9.14759 12.3832 8.83171 12.4023 8.66216 12.187C8.37331 11.8202 8.08445 11.3671 7.79559 11.0092C7.64 10.8164 7.35879 10.8137 7.17932 10.9843C6.47961 11.6495 5.5 12.6868 5.5 13.9778C5.5 14.9089 5.94199 16.0679 6.3976 16.9654C6.6045 17.373 6.22066 17.8511 5.82633 17.6219C4.10523 16.6216 2 14.549 2 11.6246C2 8.66289 6.0409 4.56013 7.5838 0.68405C7.82726 0.0724187 8.57758 -0.214986 9.09944 0.184151C12.2599 2.6014 17 7.2741 17 11.6246Z" fill="url(#paint0_diamond_55_1430)"/>
<defs>
<radialGradient id="paint0_diamond_55_1430" cx="0" cy="0" r="1" gradientUnits="userSpaceOnUse" gradientTransform="translate(-5.98214 -26.7187) rotate(67.7081) scale(60.5868 19.1746)">
<stop stop-color="#FFCA8C"/>
<stop offset="1" stop-color="#FF7337"/>
</radialGradient>
</defs>
</svg>
