<svg width="26" height="26" viewBox="0 0 26 26" fill="none" xmlns="http://www.w3.org/2000/svg">
<path d="M24.5 24.5H13C7.57885 24.5 4.86827 24.5 3.18414 22.8159C1.5 21.1317 1.5 18.4212 1.5 13V1.5" stroke="#F2F2F2" stroke-width="2" stroke-linecap="round"/>
<path d="M24.5 24.5H13C7.57885 24.5 4.86827 24.5 3.18414 22.8159C1.5 21.1317 1.5 18.4212 1.5 13V1.5" stroke="url(#paint0_diamond_2044_246)" stroke-width="2" stroke-linecap="round"/>
<path d="M21.0502 7.25L17.4645 11.7654C16.9152 12.457 16.6406 12.8028 16.3253 12.9714C15.8405 13.2305 15.2613 13.2431 14.7657 13.0053C14.4434 12.8506 14.154 12.5171 13.5752 11.85C12.9964 11.1829 12.707 10.8493 12.3847 10.6947C11.8891 10.4568 11.3098 10.4694 10.8251 10.7286C10.5098 10.8971 10.2352 11.2429 9.68591 11.9346L6.1 16.45" stroke="#F2F2F2" stroke-width="2" stroke-linecap="round"/>
<path d="M21.0502 7.25L17.4645 11.7654C16.9152 12.457 16.6406 12.8028 16.3253 12.9714C15.8405 13.2305 15.2613 13.2431 14.7657 13.0053C14.4434 12.8506 14.154 12.5171 13.5752 11.85C12.9964 11.1829 12.707 10.8493 12.3847 10.6947C11.8891 10.4568 11.3098 10.4694 10.8251 10.7286C10.5098 10.8971 10.2352 11.2429 9.68591 11.9346L6.1 16.45" stroke="url(#paint1_diamond_2044_246)" stroke-width="2" stroke-linecap="round"/>
<defs>
<radialGradient id="paint0_diamond_2044_246" cx="0" cy="0" r="1" gradientUnits="userSpaceOnUse" gradientTransform="translate(-10.7393 -32.6406) rotate(63.8047) scale(79.8295 28.5124)">
<stop stop-color="#FFCA8C"/>
<stop offset="1" stop-color="#FF7337"/>
</radialGradient>
<radialGradient id="paint1_diamond_2044_246" cx="0" cy="0" r="1" gradientUnits="userSpaceOnUse" gradientTransform="translate(-1.85564 -6.40625) rotate(51.3597) scale(36.6828 16.1329)">
<stop stop-color="#FFCA8C"/>
<stop offset="1" stop-color="#FF7337"/>
</radialGradient>
</defs>
</svg>
