<svg width="25" height="26" viewBox="0 0 25 26" fill="none" xmlns="http://www.w3.org/2000/svg">
<path d="M19.3321 8.44523L19.865 7.91227C20.7481 7.02924 22.1797 7.02924 23.0628 7.91227C23.9458 8.7953 23.9458 10.227 23.0628 11.11L22.5298 11.643M19.3321 8.44523C19.3321 8.44523 19.3987 9.57776 20.398 10.5771C21.3973 11.5763 22.5298 11.643 22.5298 11.643M19.3321 8.44523L14.4324 13.3449C14.1005 13.6768 13.9346 13.8427 13.7919 14.0257C13.6235 14.2415 13.4792 14.4751 13.3614 14.7221C13.2616 14.9316 13.1874 15.1542 13.039 15.5995L12.5638 17.025L12.4101 17.4862M22.5298 11.643L17.6301 16.5427C17.2982 16.8745 17.1323 17.0405 16.9493 17.1832C16.7335 17.3515 16.5 17.4958 16.2529 17.6136C16.0434 17.7134 15.8208 17.7876 15.3756 17.9361L13.95 18.4112L13.4888 18.565M13.4888 18.565L13.0276 18.7187C12.8085 18.7917 12.567 18.7347 12.4036 18.5714C12.2403 18.4081 12.1833 18.1665 12.2563 17.9474L12.4101 17.4862M13.4888 18.565L12.4101 17.4862" stroke="#F2F2F2" stroke-width="2"/>
<path d="M19.3321 8.44523L19.865 7.91227C20.7481 7.02924 22.1797 7.02924 23.0628 7.91227C23.9458 8.7953 23.9458 10.227 23.0628 11.11L22.5298 11.643M19.3321 8.44523C19.3321 8.44523 19.3987 9.57776 20.398 10.5771C21.3973 11.5763 22.5298 11.643 22.5298 11.643M19.3321 8.44523L14.4324 13.3449C14.1005 13.6768 13.9346 13.8427 13.7919 14.0257C13.6235 14.2415 13.4792 14.4751 13.3614 14.7221C13.2616 14.9316 13.1874 15.1542 13.039 15.5995L12.5638 17.025L12.4101 17.4862M22.5298 11.643L17.6301 16.5427C17.2982 16.8745 17.1323 17.0405 16.9493 17.1832C16.7335 17.3515 16.5 17.4958 16.2529 17.6136C16.0434 17.7134 15.8208 17.7876 15.3756 17.9361L13.95 18.4112L13.4888 18.565M13.4888 18.565L13.0276 18.7187C12.8085 18.7917 12.567 18.7347 12.4036 18.5714C12.2403 18.4081 12.1833 18.1665 12.2563 17.9474L12.4101 17.4862M13.4888 18.565L12.4101 17.4862" stroke="url(#paint0_diamond_2044_256)" stroke-width="2"/>
<path d="M7.625 14.1499H10.5" stroke="#F2F2F2" stroke-width="2" stroke-linecap="round"/>
<path d="M7.625 14.1499H10.5" stroke="url(#paint1_diamond_2044_256)" stroke-width="2" stroke-linecap="round"/>
<path d="M7.625 9.55005H15.1" stroke="#F2F2F2" stroke-width="2" stroke-linecap="round"/>
<path d="M7.625 9.55005H15.1" stroke="url(#paint2_diamond_2044_256)" stroke-width="2" stroke-linecap="round"/>
<path d="M7.625 18.75H9.35" stroke="#F2F2F2" stroke-width="2" stroke-linecap="round"/>
<path d="M7.625 18.75H9.35" stroke="url(#paint3_diamond_2044_256)" stroke-width="2" stroke-linecap="round"/>
<path d="M21.2277 2.84731C19.8804 1.5 17.7119 1.5 13.375 1.5H11.075C6.73808 1.5 4.56962 1.5 3.22231 2.84731C1.875 4.19462 1.875 6.36308 1.875 10.7V15.3C1.875 19.6369 1.875 21.8054 3.22231 23.1527C4.56962 24.5 6.73808 24.5 11.075 24.5H13.375C17.7119 24.5 19.8804 24.5 21.2277 23.1527C22.3122 22.0681 22.5238 20.4515 22.565 17.6" stroke="#F2F2F2" stroke-width="2" stroke-linecap="round"/>
<path d="M21.2277 2.84731C19.8804 1.5 17.7119 1.5 13.375 1.5H11.075C6.73808 1.5 4.56962 1.5 3.22231 2.84731C1.875 4.19462 1.875 6.36308 1.875 10.7V15.3C1.875 19.6369 1.875 21.8054 3.22231 23.1527C4.56962 24.5 6.73808 24.5 11.075 24.5H13.375C17.7119 24.5 19.8804 24.5 21.2277 23.1527C22.3122 22.0681 22.5238 20.4515 22.565 17.6" stroke="url(#paint4_diamond_2044_256)" stroke-width="2" stroke-linecap="round"/>
<defs>
<radialGradient id="paint0_diamond_2044_256" cx="0" cy="0" r="1" gradientUnits="userSpaceOnUse" gradientTransform="translate(6.10539 -9.82031) rotate(63.8047) scale(39.9148 14.2562)">
<stop stop-color="#FFCA8C"/>
<stop offset="1" stop-color="#FF7337"/>
</radialGradient>
<radialGradient id="paint1_diamond_2044_256" cx="0" cy="0" r="1" gradientUnits="userSpaceOnUse" gradientTransform="translate(6.09509 12.6655) rotate(35.2612) scale(5.39468 2.29305)">
<stop stop-color="#FFCA8C"/>
<stop offset="1" stop-color="#FF7337"/>
</radialGradient>
<radialGradient id="paint2_diamond_2044_256" cx="0" cy="0" r="1" gradientUnits="userSpaceOnUse" gradientTransform="translate(3.64723 8.06567) rotate(15.2127) scale(11.8687 2.70988)">
<stop stop-color="#FFCA8C"/>
<stop offset="1" stop-color="#FF7337"/>
</radialGradient>
<radialGradient id="paint3_diamond_2044_256" cx="0" cy="0" r="1" gradientUnits="userSpaceOnUse" gradientTransform="translate(6.70705 17.2656) rotate(49.6811) scale(4.08467 1.81708)">
<stop stop-color="#FFCA8C"/>
<stop offset="1" stop-color="#FF7337"/>
</radialGradient>
<radialGradient id="paint4_diamond_2044_256" cx="0" cy="0" r="1" gradientUnits="userSpaceOnUse" gradientTransform="translate(-9.13504 -32.6406) rotate(66.1283) scale(78.3316 26.1392)">
<stop stop-color="#FFCA8C"/>
<stop offset="1" stop-color="#FF7337"/>
</radialGradient>
</defs>
</svg>
