<svg width="26" height="21" viewBox="0 0 26 21" fill="none" xmlns="http://www.w3.org/2000/svg">
<path d="M21.05 19.9V13M21.05 13L23.35 15.3M21.05 13L18.75 15.3" stroke="#F2F2F2" stroke-width="2" stroke-linecap="round" stroke-linejoin="round"/>
<path d="M21.05 19.9V13M21.05 13L23.35 15.3M21.05 13L18.75 15.3" stroke="url(#paint0_diamond_2044_412)" stroke-width="2" stroke-linecap="round" stroke-linejoin="round"/>
<path d="M24.5 10.7C24.5 6.36308 24.5 4.19462 23.1527 2.84731C21.8054 1.5 19.6369 1.5 15.3 1.5H10.7C6.36308 1.5 4.19462 1.5 2.84731 2.84731C1.5 4.19462 1.5 6.36308 1.5 10.7C1.5 15.0369 1.5 17.2054 2.84731 18.5527C4.19462 19.9 6.36308 19.9 10.7 19.9H15.3" stroke="#F2F2F2" stroke-width="2" stroke-linecap="round"/>
<path d="M24.5 10.7C24.5 6.36308 24.5 4.19462 23.1527 2.84731C21.8054 1.5 19.6369 1.5 15.3 1.5H10.7C6.36308 1.5 4.19462 1.5 2.84731 2.84731C1.5 4.19462 1.5 6.36308 1.5 10.7C1.5 15.0369 1.5 17.2054 2.84731 18.5527C4.19462 19.9 6.36308 19.9 10.7 19.9H15.3" stroke="url(#paint1_diamond_2044_412)" stroke-width="2" stroke-linecap="round"/>
<path d="M10.7 15.3H6.09998" stroke="#F2F2F2" stroke-width="2" stroke-linecap="round"/>
<path d="M10.7 15.3H6.09998" stroke="url(#paint2_diamond_2044_412)" stroke-width="2" stroke-linecap="round"/>
<path d="M14.15 15.3H13.575" stroke="#F2F2F2" stroke-width="2" stroke-linecap="round"/>
<path d="M14.15 15.3H13.575" stroke="url(#paint3_diamond_2044_412)" stroke-width="2" stroke-linecap="round"/>
<path d="M1.5 8.3999L24.5 8.3999" stroke="#F2F2F2" stroke-width="2" stroke-linecap="round"/>
<path d="M1.5 8.3999L24.5 8.3999" stroke="url(#paint4_diamond_2044_412)" stroke-width="2" stroke-linecap="round"/>
<defs>
<radialGradient id="paint0_diamond_2044_412" cx="0" cy="0" r="1" gradientUnits="userSpaceOnUse" gradientTransform="translate(16.3021 2.75781) rotate(71.8419) scale(22.6154 6.03869)">
<stop stop-color="#FFCA8C"/>
<stop offset="1" stop-color="#FF7337"/>
</radialGradient>
<radialGradient id="paint1_diamond_2044_412" cx="0" cy="0" r="1" gradientUnits="userSpaceOnUse" gradientTransform="translate(-10.7393 -25.8125) rotate(58.4106) scale(67.2727 27.0675)">
<stop stop-color="#FFCA8C"/>
<stop offset="1" stop-color="#FF7337"/>
</radialGradient>
<radialGradient id="paint2_diamond_2044_412" cx="0" cy="0" r="1" gradientUnits="userSpaceOnUse" gradientTransform="translate(3.65212 13.8157) rotate(23.8401) scale(7.7053 2.56868)">
<stop stop-color="#FFCA8C"/>
<stop offset="1" stop-color="#FF7337"/>
</radialGradient>
<radialGradient id="paint3_diamond_2044_412" cx="0" cy="0" r="1" gradientUnits="userSpaceOnUse" gradientTransform="translate(13.269 13.8157) rotate(74.2051) scale(3.23658 0.764403)">
<stop stop-color="#FFCA8C"/>
<stop offset="1" stop-color="#FF7337"/>
</radialGradient>
<radialGradient id="paint4_diamond_2044_412" cx="0" cy="0" r="1" gradientUnits="userSpaceOnUse" gradientTransform="translate(-10.7393 6.91553) rotate(5.05056) scale(35.3766 2.79738)">
<stop stop-color="#FFCA8C"/>
<stop offset="1" stop-color="#FF7337"/>
</radialGradient>
</defs>
</svg>
