<svg width="193" height="45" viewBox="0 0 193 45" fill="none" xmlns="http://www.w3.org/2000/svg">
<path d="M24.1481 28.1639V2.04199H40.5254V5.43479H28.0894V13.3938H39.6708V16.7739H28.0894V24.7712H40.6784V28.1639H24.1481Z" fill="#27292F"/>
<path d="M15.2803 8.90382C15.1443 7.69636 14.5831 6.761 13.5967 6.09775C12.6103 5.426 11.3688 5.09012 9.87226 5.09012C8.80085 5.09012 7.874 5.26018 7.0917 5.60031C6.3094 5.93194 5.70142 6.39111 5.26776 6.97784C4.8426 7.55606 4.63001 8.21506 4.63001 8.95484C4.63001 9.57558 4.77457 10.1113 5.06368 10.562C5.36129 11.0126 5.74819 11.391 6.22437 11.6971C6.70906 11.9947 7.22775 12.2456 7.78046 12.4497C8.33317 12.6452 8.86463 12.8068 9.37482 12.9344L11.9258 13.5976C12.7591 13.8017 13.6137 14.078 14.4895 14.4267C15.3654 14.7753 16.1774 15.2345 16.9257 15.8042C17.674 16.3739 18.2777 17.0797 18.7369 17.9215C19.2046 18.7633 19.4384 19.771 19.4384 20.9444C19.4384 22.424 19.0558 23.7377 18.2905 24.8857C17.5337 26.0336 16.4325 26.9392 14.987 27.6024C13.5499 28.2657 11.811 28.5973 9.77022 28.5973C7.81448 28.5973 6.12233 28.287 4.69379 27.6662C3.26524 27.0455 2.14707 26.1654 1.33926 25.026C0.531452 23.878 0.0850323 22.5175 0 20.9444H3.95401C4.03054 21.8883 4.33665 22.6748 4.87236 23.3041C5.41656 23.9248 6.10958 24.3882 6.9514 24.6943C7.80172 24.992 8.73283 25.1408 9.74471 25.1408C10.8586 25.1408 11.8493 24.9664 12.7166 24.6178C13.5924 24.2607 14.2812 23.7675 14.7829 23.1382C15.2846 22.5005 15.5354 21.7565 15.5354 20.9061C15.5354 20.1324 15.3143 19.4989 14.8722 19.0057C14.4385 18.5125 13.8475 18.1043 13.0992 17.7812C12.3595 17.4581 11.5219 17.1732 10.5865 16.9266L7.49986 16.0848C5.40806 15.5151 3.74993 14.6775 2.52546 13.5721C1.3095 12.4667 0.701517 11.0041 0.701517 9.18443C0.701517 7.67935 1.10967 6.3656 1.92598 5.24318C2.7423 4.12075 3.84772 3.24917 5.24225 2.62843C6.63678 1.99919 8.20988 1.68457 9.96155 1.68457C11.7302 1.68457 13.2906 1.99494 14.6426 2.61568C16.0031 3.23641 17.0745 4.09099 17.8568 5.1794C18.6391 6.25931 19.0473 7.50079 19.0813 8.90382H15.2803Z" fill="#27292F"/>
<path d="M70.9808 39.8979V36.7092L82.2688 18.8779H84.7815V23.5717H83.1872L75.1134 36.3521V36.5562H90.585V39.8979H70.9808ZM83.3658 44.9999V38.9286L83.3913 37.4745V18.8779H87.1284V44.9999H83.3658Z" fill="#3757FF"/>
<path fill-rule="evenodd" clip-rule="evenodd" d="M50.0628 42.1429V45H67.2563V41.62H55.4964V41.4286L60.6876 35.9951C62.2777 34.3795 63.5192 33.0062 64.412 31.8752C65.3049 30.7358 65.9298 29.7027 66.287 28.7758C66.6526 27.849 66.8354 26.9009 66.8354 25.9315C66.8354 24.9982 66.6793 24.1289 66.367 23.3235C66.3446 23.2657 66.3213 23.2082 66.2973 23.151C65.581 23.7845 64.7873 24.3246 63.9356 24.7582C63.9725 24.6707 64.0087 24.5824 64.0443 24.4934C64.4451 23.4913 64.7759 22.371 65.033 21.1722C64.653 20.7514 64.2215 20.375 63.7382 20.0432C63.4536 19.8477 63.151 19.6676 62.8304 19.503C61.5804 18.8483 60.1349 18.5209 58.4938 18.5209C56.8696 18.5209 55.4198 18.8525 54.1444 19.5158C53.5226 19.8349 52.9655 20.2177 52.4731 20.6642C52.7426 22.0549 53.1085 23.351 53.5654 24.4934C53.6011 24.5827 53.6375 24.6713 53.6746 24.7592C52.6475 24.2366 51.705 23.5593 50.8805 22.7498C50.343 23.8295 50.0373 25.1052 50.0373 26.4544V26.5017C50.2401 26.6458 50.4485 26.7831 50.6623 26.9136C50.7612 26.9733 50.861 27.0313 50.9614 27.0876C51.849 27.5853 52.7951 27.9534 53.8 28.1918V26.4544C53.8 25.7326 53.9114 25.0817 54.1342 24.5017C54.2001 24.3301 54.2758 24.1647 54.3612 24.0055C54.7353 23.3082 55.271 22.7683 55.9683 22.3856C56.0846 22.3218 56.2042 22.2633 56.3271 22.2101C56.9412 21.9445 57.6379 21.8117 58.4172 21.8117C59.3016 21.8117 60.0966 21.986 60.8024 22.3346C60.9319 22.397 61.0564 22.4645 61.1759 22.5369C61.3953 22.6699 61.5978 22.8198 61.7834 22.9865C62.0476 23.2239 62.2775 23.4956 62.4733 23.8014C62.8814 24.4307 63.0855 25.1789 63.0855 26.0463C63.0855 26.2786 63.0714 26.5071 63.0432 26.7316C62.9785 27.2465 62.8395 27.7409 62.6263 28.2146C62.5182 28.4549 62.3905 28.6999 62.2431 28.9498C61.9732 29.4072 61.6375 29.8807 61.2361 30.3702C60.6238 31.1185 59.8458 31.99 58.9019 32.9849L50.0628 42.1429Z" fill="#3757FF"/>
<path d="M53.6746 24.7592C53.6375 24.6713 53.6011 24.5827 53.5654 24.4934C53.1085 23.351 52.7426 22.0549 52.4731 20.6642C51.9553 21.1336 51.509 21.6734 51.1342 22.2836C51.0447 22.4344 50.96 22.59 50.8805 22.7498C51.705 23.5593 52.6475 24.2366 53.6746 24.7592Z" fill="#3757FF"/>
<path d="M64.0443 24.4934C64.0087 24.5824 63.9725 24.6707 63.9356 24.7582C64.7873 24.3246 65.581 23.7845 66.2973 23.151C66.1529 22.8074 65.9794 22.4758 65.7768 22.156C65.5559 21.8048 65.308 21.4768 65.033 21.1722C64.7759 22.371 64.4451 23.4913 64.0443 24.4934Z" fill="#3757FF"/>
<path d="M53.8 28.1918C52.7951 27.9534 51.849 27.5853 50.9614 27.0876C51.6673 27.5337 52.4115 27.9199 53.1866 28.2409C53.3895 28.3249 53.594 28.4043 53.8 28.479V28.1918Z" fill="#3757FF"/>
<path fill-rule="evenodd" clip-rule="evenodd" d="M58.8003 4.58988e-07C56.8739 0.000490658 54.9664 0.380164 53.1866 1.11738C51.4057 1.85508 49.7874 2.93634 48.4244 4.29942C47.0613 5.66251 45.98 7.28072 45.2423 9.06168C44.5046 10.8426 44.1249 12.7515 44.1249 14.6791C44.1249 16.6068 44.5046 18.5157 45.2423 20.2966C45.98 22.0776 47.0613 23.6958 48.4244 25.0589C49.1942 25.8287 50.0454 26.5087 50.9614 27.0876C51.849 27.5853 52.7951 27.9534 53.8 28.1918V26.4544C53.8 25.7326 53.9114 25.0817 54.1342 24.5017C54.2001 24.3301 54.2758 24.1647 54.3612 24.0055C54.7353 23.3082 55.271 22.7683 55.9683 22.3856C56.0846 22.3218 56.2042 22.2633 56.3271 22.2101C56.061 21.3649 55.8362 20.4127 55.6645 19.3766C55.5049 18.4135 55.395 17.4004 55.3378 16.3636C55.2585 15.3352 55.3047 13.6891 55.3378 12.9947C55.395 11.9579 55.5049 10.9448 55.6645 9.98165C55.9102 8.4988 56.2648 7.18768 56.6934 6.11614C57.1272 5.03159 57.5988 4.28765 58.0274 3.8438C58.45 3.40622 58.715 3.36898 58.8041 3.36898C58.8941 3.36898 59.1606 3.40714 59.5823 3.8438C60.0109 4.28765 60.4825 5.03159 60.9163 6.11614C61.3449 7.18768 61.6995 8.4988 61.9452 9.98165C62.1048 10.9448 62.2147 11.9579 62.2719 12.9947C62.3078 13.6617 62.3579 15.2694 62.2719 16.3636C62.2147 17.4004 62.1048 18.4135 61.9452 19.3766C61.7511 20.5485 61.4889 21.613 61.1759 22.5369C61.3953 22.6699 61.5978 22.8198 61.7834 22.9865C62.0476 23.2239 62.2775 23.4956 62.4733 23.8014C62.8814 24.4307 63.0855 25.1789 63.0855 26.0463C63.0855 26.2786 63.0714 26.5071 63.0432 26.7316C62.9785 27.2465 62.8395 27.7409 62.6263 28.2146C62.5182 28.4549 62.3905 28.6999 62.2431 28.9498C62.9849 28.771 63.7133 28.5343 64.4215 28.2409C66.2025 27.5032 67.8207 26.422 69.1838 25.0589C70.5469 23.6958 71.6281 22.0776 72.3658 20.2966C73.1035 18.5157 73.4832 16.6068 73.4832 14.6791C73.4832 12.7515 73.1035 10.8426 72.3658 9.06168C71.6281 7.28072 70.5469 5.66251 69.1838 4.29942C67.8207 2.93634 66.2025 1.85508 64.4215 1.11738C62.6406 0.379688 60.7318 2.29494e-07 58.8041 0L58.8003 4.58988e-07ZM51.9642 12.9947C52.0246 11.7768 52.1507 10.5783 52.3408 9.43096C52.6176 7.76065 53.0287 6.20673 53.5654 4.86493C53.6011 4.77558 53.6375 4.68695 53.6746 4.59908C52.6167 5.1374 51.6485 5.83976 50.8066 6.68165C49.7563 7.7319 48.9232 8.97872 48.3549 10.3509C48.0027 11.201 47.7565 12.0889 47.6201 12.9947H51.9642ZM47.6201 16.3636H51.9642C52.0246 17.5815 52.1507 18.7799 52.3408 19.9273C52.382 20.1756 52.4261 20.4213 52.4731 20.6642C52.7426 22.0549 53.1085 23.351 53.5654 24.4934C53.6011 24.5827 53.6375 24.6713 53.6746 24.7592C52.6475 24.2366 51.705 23.5593 50.8805 22.7498C50.8557 22.7256 50.8311 22.7012 50.8066 22.6766C49.7563 21.6264 48.9232 20.3796 48.3549 19.0074C48.0027 18.1573 47.7565 17.2694 47.6201 16.3636ZM66.2973 23.151C66.47 22.9982 66.6381 22.8401 66.8016 22.6766C67.8518 21.6264 68.6849 20.3796 69.2533 19.0074C69.6054 18.1573 69.8517 17.2694 69.9881 16.3636H65.6455C65.5851 17.5815 65.459 18.7799 65.2689 19.9273C65.1988 20.3503 65.1201 20.7657 65.033 21.1722C64.7759 22.371 64.4451 23.4913 64.0443 24.4934C64.0087 24.5824 63.9725 24.6707 63.9356 24.7582C64.7873 24.3246 65.581 23.7845 66.2973 23.151ZM65.6455 12.9947C65.5851 11.7768 65.459 10.5783 65.2689 9.43097C64.9921 7.76065 64.581 6.20673 64.0443 4.86493C64.0087 4.77592 63.9725 4.68762 63.9356 4.60007C64.9927 5.13827 65.9602 5.84028 66.8016 6.68165C67.8518 7.7319 68.6849 8.97872 69.2533 10.3509C69.6054 11.201 69.8517 12.0889 69.9881 12.9947H65.6455Z" fill="#3757FF"/>
<path d="M99.565 28V17.92H107.433V28H106.187V19.103H100.811V28H99.565ZM112.867 28.21C112.158 28.21 111.56 28.035 111.075 27.685C110.59 27.3303 110.221 26.852 109.969 26.25C109.722 25.6433 109.598 24.9643 109.598 24.213C109.598 23.4523 109.722 22.771 109.969 22.169C110.221 21.567 110.59 21.0933 111.075 20.748C111.565 20.4027 112.165 20.23 112.874 20.23C113.574 20.23 114.176 20.405 114.68 20.755C115.189 21.1003 115.578 21.574 115.849 22.176C116.12 22.778 116.255 23.457 116.255 24.213C116.255 24.969 116.12 25.648 115.849 26.25C115.578 26.852 115.189 27.3303 114.68 27.685C114.176 28.035 113.572 28.21 112.867 28.21ZM109.388 31.36V20.44H110.501V26.005H110.641V31.36H109.388ZM112.713 27.069C113.212 27.069 113.625 26.943 113.952 26.691C114.279 26.439 114.524 26.0983 114.687 25.669C114.85 25.235 114.932 24.7497 114.932 24.213C114.932 23.681 114.85 23.2003 114.687 22.771C114.528 22.3417 114.281 22.001 113.945 21.749C113.614 21.497 113.191 21.371 112.678 21.371C112.188 21.371 111.782 21.4923 111.46 21.735C111.138 21.973 110.898 22.3067 110.739 22.736C110.58 23.1607 110.501 23.653 110.501 24.213C110.501 24.7637 110.578 25.256 110.732 25.69C110.891 26.1193 111.133 26.4577 111.46 26.705C111.787 26.9477 112.204 27.069 112.713 27.069ZM121.01 28.21C120.258 28.21 119.61 28.0397 119.064 27.699C118.522 27.3583 118.105 26.887 117.811 26.285C117.517 25.683 117.37 24.9923 117.37 24.213C117.37 23.4197 117.519 22.7243 117.818 22.127C118.116 21.5297 118.539 21.0653 119.085 20.734C119.631 20.398 120.272 20.23 121.01 20.23C121.766 20.23 122.417 20.4003 122.963 20.741C123.509 21.077 123.926 21.546 124.216 22.148C124.51 22.7453 124.657 23.4337 124.657 24.213C124.657 25.0017 124.51 25.697 124.216 26.299C123.922 26.8963 123.502 27.3653 122.956 27.706C122.41 28.042 121.761 28.21 121.01 28.21ZM121.01 27.027C121.794 27.027 122.377 26.7657 122.76 26.243C123.142 25.7203 123.334 25.0437 123.334 24.213C123.334 23.359 123.14 22.68 122.753 22.176C122.365 21.6673 121.784 21.413 121.01 21.413C120.482 21.413 120.048 21.532 119.708 21.77C119.367 22.008 119.113 22.337 118.945 22.757C118.777 23.177 118.693 23.6623 118.693 24.213C118.693 25.0623 118.889 25.7437 119.281 26.257C119.673 26.7703 120.249 27.027 121.01 27.027ZM125.638 29.68V26.971C126.062 26.971 126.366 26.8333 126.548 26.558C126.73 26.278 126.877 25.8183 126.989 25.179C127.063 24.7777 127.124 24.3483 127.171 23.891C127.217 23.4337 127.257 22.925 127.29 22.365C127.327 21.8003 127.362 21.1587 127.395 20.44H132.603V26.971H133.338V29.68H132.148V28H126.828V29.68H125.638ZM127.556 26.971H131.357V21.469H128.522C128.508 21.8003 128.489 22.148 128.466 22.512C128.442 22.8713 128.414 23.2307 128.382 23.59C128.354 23.9493 128.319 24.29 128.277 24.612C128.239 24.9293 128.195 25.214 128.144 25.466C128.083 25.816 128.013 26.1123 127.934 26.355C127.854 26.5977 127.728 26.803 127.556 26.971ZM134.736 28V20.44H137.956C138.147 20.44 138.352 20.4517 138.572 20.475C138.796 20.4937 138.999 20.5287 139.181 20.58C139.587 20.6873 139.92 20.909 140.182 21.245C140.448 21.5763 140.581 21.9963 140.581 22.505C140.581 22.7897 140.536 23.037 140.448 23.247C140.364 23.457 140.242 23.639 140.084 23.793C140.014 23.863 139.937 23.926 139.853 23.982C139.769 24.038 139.685 24.0823 139.601 24.115C139.764 24.143 139.93 24.206 140.098 24.304C140.364 24.4487 140.571 24.6517 140.721 24.913C140.875 25.1743 140.952 25.508 140.952 25.914C140.952 26.4273 140.828 26.852 140.581 27.188C140.333 27.5193 139.993 27.748 139.559 27.874C139.377 27.9253 139.176 27.9603 138.957 27.979C138.737 27.993 138.525 28 138.32 28H134.736ZM135.996 26.985H138.25C138.348 26.985 138.464 26.9757 138.6 26.957C138.74 26.9383 138.863 26.915 138.971 26.887C139.213 26.817 139.388 26.6863 139.496 26.495C139.608 26.3037 139.664 26.096 139.664 25.872C139.664 25.5733 139.58 25.3307 139.412 25.144C139.248 24.9573 139.031 24.8407 138.761 24.794C138.663 24.766 138.555 24.7497 138.439 24.745C138.327 24.7403 138.226 24.738 138.138 24.738H135.996V26.985ZM135.996 23.709H137.872C138.002 23.709 138.14 23.702 138.285 23.688C138.429 23.6693 138.555 23.639 138.663 23.597C138.877 23.5177 139.034 23.387 139.132 23.205C139.234 23.0183 139.286 22.8153 139.286 22.596C139.286 22.3533 139.23 22.141 139.118 21.959C139.01 21.7723 138.845 21.644 138.621 21.574C138.471 21.518 138.303 21.4877 138.117 21.483C137.935 21.4737 137.818 21.469 137.767 21.469H135.996V23.709ZM148.546 20.44V28H147.342V22.428L143.38 28H142.351V20.44H143.555V25.935L147.524 20.44H148.546ZM149.666 28L152.718 24.22L149.813 20.44H151.199L154.006 24.15V20.44H155.14V24.15L157.947 20.44H159.333L156.428 24.22L159.48 28H158.031L155.14 24.29V28H154.006V24.29L151.115 28H149.666ZM163.599 28.21C162.857 28.21 162.208 28.0467 161.653 27.72C161.102 27.3887 160.673 26.929 160.365 26.341C160.057 25.7483 159.903 25.0577 159.903 24.269C159.903 23.443 160.054 22.729 160.358 22.127C160.661 21.5203 161.083 21.0537 161.625 20.727C162.171 20.3957 162.81 20.23 163.543 20.23C164.303 20.23 164.95 20.405 165.482 20.755C166.018 21.105 166.42 21.6043 166.686 22.253C166.956 22.9017 167.073 23.674 167.036 24.57H165.776V24.122C165.762 23.1933 165.573 22.5003 165.209 22.043C164.845 21.581 164.303 21.35 163.585 21.35C162.815 21.35 162.229 21.5973 161.828 22.092C161.426 22.5867 161.226 23.296 161.226 24.22C161.226 25.1113 161.426 25.802 161.828 26.292C162.229 26.782 162.801 27.027 163.543 27.027C164.042 27.027 164.476 26.9127 164.845 26.684C165.213 26.4553 165.503 26.1263 165.713 25.697L166.91 26.11C166.616 26.7773 166.172 27.2953 165.58 27.664C164.992 28.028 164.331 28.21 163.599 28.21ZM160.806 24.57V23.569H166.392V24.57H160.806ZM168.587 28V20.44H169.833V23.625H173.809V20.44H175.055V28H173.809V24.808H169.833V28H168.587ZM183.204 20.44V28H182V22.428L178.038 28H177.009V20.44H178.213V25.935L182.182 20.44H183.204ZM188.441 28.21C187.699 28.21 187.05 28.0467 186.495 27.72C185.944 27.3887 185.515 26.929 185.207 26.341C184.899 25.7483 184.745 25.0577 184.745 24.269C184.745 23.443 184.896 22.729 185.2 22.127C185.503 21.5203 185.925 21.0537 186.467 20.727C187.013 20.3957 187.652 20.23 188.385 20.23C189.145 20.23 189.792 20.405 190.324 20.755C190.86 21.105 191.262 21.6043 191.528 22.253C191.798 22.9017 191.915 23.674 191.878 24.57H190.618V24.122C190.604 23.1933 190.415 22.5003 190.051 22.043C189.687 21.581 189.145 21.35 188.427 21.35C187.657 21.35 187.071 21.5973 186.67 22.092C186.268 22.5867 186.068 23.296 186.068 24.22C186.068 25.1113 186.268 25.802 186.67 26.292C187.071 26.782 187.643 27.027 188.385 27.027C188.884 27.027 189.318 26.9127 189.687 26.684C190.055 26.4553 190.345 26.1263 190.555 25.697L191.752 26.11C191.458 26.7773 191.014 27.2953 190.422 27.664C189.834 28.028 189.173 28.21 188.441 28.21ZM185.648 24.57V23.569H191.234V24.57H185.648ZM102.75 43.21C101.985 43.21 101.334 43.0397 100.797 42.699C100.265 42.3537 99.859 41.88 99.579 41.278C99.299 40.676 99.1543 39.99 99.145 39.22C99.1543 38.4313 99.3013 37.7383 99.586 37.141C99.8753 36.539 100.288 36.07 100.825 35.734C101.362 35.398 102.008 35.23 102.764 35.23C103.562 35.23 104.248 35.426 104.822 35.818C105.401 36.21 105.788 36.7467 105.984 37.428L104.752 37.799C104.593 37.3603 104.334 37.0197 103.975 36.777C103.62 36.5343 103.212 36.413 102.75 36.413C102.232 36.413 101.805 36.5343 101.469 36.777C101.133 37.015 100.883 37.3463 100.72 37.771C100.557 38.191 100.473 38.674 100.468 39.22C100.477 40.06 100.671 40.739 101.049 41.257C101.432 41.7703 101.999 42.027 102.75 42.027C103.245 42.027 103.655 41.915 103.982 41.691C104.309 41.4623 104.556 41.1333 104.724 40.704L105.984 41.033C105.723 41.7377 105.314 42.2767 104.759 42.65C104.204 43.0233 103.534 43.21 102.75 43.21ZM109.493 43.21C108.929 43.21 108.455 43.1073 108.072 42.902C107.694 42.692 107.407 42.4167 107.211 42.076C107.02 41.7353 106.924 41.362 106.924 40.956C106.924 40.5593 106.999 40.2163 107.148 39.927C107.302 39.633 107.517 39.3903 107.792 39.199C108.068 39.003 108.397 38.849 108.779 38.737C109.139 38.639 109.54 38.555 109.983 38.485C110.431 38.4103 110.884 38.3427 111.341 38.282C111.799 38.2213 112.226 38.163 112.622 38.107L112.174 38.366C112.188 37.694 112.053 37.197 111.768 36.875C111.488 36.553 111.003 36.392 110.312 36.392C109.855 36.392 109.454 36.497 109.108 36.707C108.768 36.9123 108.527 37.2483 108.387 37.715L107.204 37.358C107.386 36.6953 107.739 36.175 108.261 35.797C108.784 35.419 109.472 35.23 110.326 35.23C111.012 35.23 111.6 35.3537 112.09 35.601C112.585 35.8437 112.94 36.2123 113.154 36.707C113.262 36.9403 113.329 37.1947 113.357 37.47C113.385 37.7407 113.399 38.0253 113.399 38.324V43H112.293V41.187L112.552 41.355C112.268 41.9663 111.869 42.4283 111.355 42.741C110.847 43.0537 110.226 43.21 109.493 43.21ZM109.682 42.167C110.13 42.167 110.518 42.0877 110.844 41.929C111.176 41.7657 111.442 41.5533 111.642 41.292C111.843 41.026 111.974 40.7367 112.034 40.424C112.104 40.1907 112.142 39.9317 112.146 39.647C112.156 39.3577 112.16 39.136 112.16 38.982L112.594 39.171C112.188 39.227 111.789 39.2807 111.397 39.332C111.005 39.3833 110.634 39.4393 110.284 39.5C109.934 39.556 109.619 39.6237 109.339 39.703C109.134 39.7683 108.94 39.8523 108.758 39.955C108.581 40.0577 108.436 40.1907 108.324 40.354C108.217 40.5127 108.163 40.711 108.163 40.949C108.163 41.1543 108.215 41.3503 108.317 41.537C108.425 41.7237 108.588 41.8753 108.807 41.992C109.031 42.1087 109.323 42.167 109.682 42.167ZM118.474 34.558C118.124 34.558 117.805 34.4717 117.515 34.299C117.226 34.1263 116.995 33.8977 116.822 33.613C116.65 33.3237 116.563 33.0017 116.563 32.647H117.571C117.571 32.8943 117.66 33.1067 117.837 33.284C118.015 33.4613 118.227 33.55 118.474 33.55C118.726 33.55 118.939 33.4613 119.111 33.284C119.289 33.1067 119.377 32.8943 119.377 32.647H120.385C120.385 33.0017 120.299 33.3237 120.126 33.613C119.958 33.8977 119.727 34.1263 119.433 34.299C119.144 34.4717 118.824 34.558 118.474 34.558ZM121.407 35.44V43H120.203V37.428L116.241 43H115.212V35.44H116.416V40.935L120.385 35.44H121.407ZM125.37 43V36.574H122.738V35.44H129.248V36.574H126.616V43H125.37ZM133.656 43.21C132.905 43.21 132.256 43.0397 131.71 42.699C131.169 42.3583 130.751 41.887 130.457 41.285C130.163 40.683 130.016 39.9923 130.016 39.213C130.016 38.4197 130.165 37.7243 130.464 37.127C130.763 36.5297 131.185 36.0653 131.731 35.734C132.277 35.398 132.919 35.23 133.656 35.23C134.412 35.23 135.063 35.4003 135.609 35.741C136.155 36.077 136.573 36.546 136.862 37.148C137.156 37.7453 137.303 38.4337 137.303 39.213C137.303 40.0017 137.156 40.697 136.862 41.299C136.568 41.8963 136.148 42.3653 135.602 42.706C135.056 43.042 134.407 43.21 133.656 43.21ZM133.656 42.027C134.44 42.027 135.023 41.7657 135.406 41.243C135.789 40.7203 135.98 40.0437 135.98 39.213C135.98 38.359 135.786 37.68 135.399 37.176C135.012 36.6673 134.431 36.413 133.656 36.413C133.129 36.413 132.695 36.532 132.354 36.77C132.013 37.008 131.759 37.337 131.591 37.757C131.423 38.177 131.339 38.6623 131.339 39.213C131.339 40.0623 131.535 40.7437 131.927 41.257C132.319 41.7703 132.895 42.027 133.656 42.027ZM138.837 43V35.44H142.057C142.249 35.44 142.454 35.4517 142.673 35.475C142.897 35.4937 143.1 35.5287 143.282 35.58C143.688 35.6873 144.022 35.909 144.283 36.245C144.549 36.5763 144.682 36.9963 144.682 37.505C144.682 37.7897 144.638 38.037 144.549 38.247C144.465 38.457 144.344 38.639 144.185 38.793C144.115 38.863 144.038 38.926 143.954 38.982C143.87 39.038 143.786 39.0823 143.702 39.115C143.866 39.143 144.031 39.206 144.199 39.304C144.465 39.4487 144.673 39.6517 144.822 39.913C144.976 40.1743 145.053 40.508 145.053 40.914C145.053 41.4273 144.93 41.852 144.682 42.188C144.435 42.5193 144.094 42.748 143.66 42.874C143.478 42.9253 143.278 42.9603 143.058 42.979C142.839 42.993 142.627 43 142.421 43H138.837ZM140.097 41.985H142.351C142.449 41.985 142.566 41.9757 142.701 41.957C142.841 41.9383 142.965 41.915 143.072 41.887C143.315 41.817 143.49 41.6863 143.597 41.495C143.709 41.3037 143.765 41.096 143.765 40.872C143.765 40.5733 143.681 40.3307 143.513 40.144C143.35 39.9573 143.133 39.8407 142.862 39.794C142.764 39.766 142.657 39.7497 142.54 39.745C142.428 39.7403 142.328 39.738 142.239 39.738H140.097V41.985ZM140.097 38.709H141.973C142.104 38.709 142.242 38.702 142.386 38.688C142.531 38.6693 142.657 38.639 142.764 38.597C142.979 38.5177 143.135 38.387 143.233 38.205C143.336 38.0183 143.387 37.8153 143.387 37.596C143.387 37.3533 143.331 37.141 143.219 36.959C143.112 36.7723 142.946 36.644 142.722 36.574C142.573 36.518 142.405 36.4877 142.218 36.483C142.036 36.4737 141.92 36.469 141.868 36.469H140.097V38.709Z" fill="#686A6E"/>
</svg>
