<svg width="164" height="51" viewBox="0 0 164 51" fill="none" xmlns="http://www.w3.org/2000/svg">
<path d="M17.4886 11.3636C17.3352 10.0682 16.7131 9.0625 15.6222 8.34659C14.5313 7.63068 13.1932 7.27273 11.608 7.27273C10.4489 7.27273 9.43466 7.46023 8.56534 7.83523C7.70455 8.21023 7.03125 8.72585 6.54545 9.3821C6.06818 10.0384 5.82955 10.7841 5.82955 11.6193C5.82955 12.3182 5.99574 12.919 6.32812 13.4219C6.66903 13.9162 7.10369 14.3295 7.6321 14.6619C8.16051 14.9858 8.71449 15.2543 9.29403 15.4673C9.87358 15.6719 10.4062 15.8381 10.892 15.9659L13.5511 16.6818C14.233 16.8608 14.9915 17.108 15.8267 17.4233C16.6705 17.7386 17.4759 18.169 18.2429 18.7145C19.0185 19.2514 19.6577 19.9418 20.1605 20.7855C20.6634 21.6293 20.9148 22.6648 20.9148 23.892C20.9148 25.3068 20.544 26.5852 19.8026 27.7273C19.0696 28.8693 17.9957 29.777 16.581 30.4503C15.1747 31.1236 13.4659 31.4602 11.4545 31.4602C9.57955 31.4602 7.95597 31.1577 6.58381 30.5526C5.22017 29.9474 4.14631 29.1037 3.36222 28.0213C2.58665 26.9389 2.14773 25.6818 2.04545 24.25H5.31818C5.40341 25.2386 5.7358 26.0568 6.31534 26.7045C6.90341 27.3437 7.64489 27.821 8.53977 28.1364C9.44318 28.4432 10.4148 28.5966 11.4545 28.5966C12.6648 28.5966 13.7514 28.4006 14.7145 28.0085C15.6776 27.608 16.4403 27.054 17.0028 26.3466C17.5653 25.6307 17.8466 24.7955 17.8466 23.8409C17.8466 22.9716 17.6037 22.2642 17.1179 21.7188C16.6321 21.1733 15.9929 20.7301 15.2003 20.3892C14.4077 20.0483 13.5511 19.75 12.6307 19.4943L9.40909 18.5739C7.36364 17.9858 5.74432 17.1463 4.55114 16.0554C3.35795 14.9645 2.76136 13.5369 2.76136 11.7727C2.76136 10.3068 3.15767 9.02841 3.95028 7.9375C4.75142 6.83807 5.82528 5.98579 7.17188 5.38068C8.52699 4.76704 10.0398 4.46023 11.7102 4.46023C13.3977 4.46023 14.8977 4.76278 16.2102 5.3679C17.5227 5.96449 18.5625 6.78267 19.3295 7.82244C20.1051 8.86221 20.5142 10.0426 20.5568 11.3636H17.4886ZM24.3275 31V4.81818H40.1286V7.63068H27.4979V16.4773H39.3104V19.2898H27.4979V28.1875H40.3332V31H24.3275ZM79.4989 31V4.81818H82.6693V28.1875H94.8398V31H79.4989ZM119.02 17.9091C119.02 20.6705 118.522 23.0568 117.525 25.0682C116.527 27.0795 115.159 28.6307 113.421 29.7216C111.682 30.8125 109.696 31.358 107.463 31.358C105.23 31.358 103.245 30.8125 101.506 29.7216C99.7674 28.6307 98.3995 27.0795 97.4024 25.0682C96.4052 23.0568 95.9066 20.6705 95.9066 17.9091C95.9066 15.1477 96.4052 12.7614 97.4024 10.75C98.3995 8.73864 99.7674 7.1875 101.506 6.09659C103.245 5.00568 105.23 4.46023 107.463 4.46023C109.696 4.46023 111.682 5.00568 113.421 6.09659C115.159 7.1875 116.527 8.73864 117.525 10.75C118.522 12.7614 119.02 15.1477 119.02 17.9091ZM115.952 17.9091C115.952 15.642 115.573 13.7287 114.814 12.169C114.064 10.6094 113.046 9.42898 111.759 8.62784C110.48 7.8267 109.049 7.42614 107.463 7.42614C105.878 7.42614 104.442 7.8267 103.155 8.62784C101.877 9.42898 100.858 10.6094 100.1 12.169C99.3498 13.7287 98.9748 15.642 98.9748 17.9091C98.9748 20.1761 99.3498 22.0895 100.1 23.6491C100.858 25.2088 101.877 26.3892 103.155 27.1903C104.442 27.9915 105.878 28.392 107.463 28.392C109.049 28.392 110.48 27.9915 111.759 27.1903C113.046 26.3892 114.064 25.2088 114.814 23.6491C115.573 22.0895 115.952 20.1761 115.952 17.9091ZM122.551 31V4.81818H131.705C133.529 4.81818 135.033 5.13352 136.217 5.7642C137.402 6.38636 138.284 7.22585 138.864 8.28267C139.443 9.33096 139.733 10.4943 139.733 11.7727C139.733 12.8977 139.533 13.8267 139.132 14.5597C138.74 15.2926 138.22 15.8722 137.573 16.2983C136.933 16.7244 136.239 17.0398 135.489 17.2443V17.5C136.29 17.5511 137.095 17.8324 137.905 18.3438C138.715 18.8551 139.392 19.5881 139.938 20.5426C140.483 21.4972 140.756 22.6648 140.756 24.0455C140.756 25.358 140.457 26.5384 139.861 27.5866C139.264 28.6349 138.323 29.4659 137.036 30.0795C135.749 30.6932 134.074 31 132.011 31H122.551ZM125.722 28.1875H132.011C134.082 28.1875 135.553 27.7869 136.422 26.9858C137.3 26.1761 137.739 25.196 137.739 24.0455C137.739 23.1591 137.513 22.3409 137.061 21.5909C136.609 20.8324 135.966 20.2273 135.131 19.7756C134.296 19.3153 133.307 19.0852 132.165 19.0852H125.722V28.1875ZM125.722 16.3239H131.602C132.557 16.3239 133.418 16.1364 134.185 15.7614C134.96 15.3864 135.574 14.858 136.026 14.1761C136.486 13.4943 136.716 12.6932 136.716 11.7727C136.716 10.6222 136.315 9.64631 135.514 8.84517C134.713 8.03551 133.443 7.63068 131.705 7.63068H125.722V16.3239ZM144.165 31V4.81818H159.966V7.63068H147.336V16.4773H159.148V19.2898H147.336V28.1875H160.171V31H144.165Z" fill="#27292F"/>
<path d="M66.134 17.9091C66.134 20.6705 65.6354 23.0568 64.6383 25.0682C63.6411 27.0795 62.2732 28.6307 60.5346 29.7216C58.796 30.8125 56.8102 31.358 54.5772 31.358C52.3442 31.358 50.3585 30.8125 48.6198 29.7216C46.8812 28.6307 45.5133 27.0795 44.5161 25.0682C43.519 23.0568 43.0204 20.6705 43.0204 17.9091C43.0204 15.1477 43.519 12.7614 44.5161 10.75C45.5133 8.73864 46.8812 7.1875 48.6198 6.09659C50.3585 5.00568 52.3442 4.46023 54.5772 4.46023C56.8102 4.46023 58.796 5.00568 60.5346 6.09659C62.2732 7.1875 63.6411 8.73864 64.6383 10.75C65.6354 12.7614 66.134 15.1477 66.134 17.9091ZM63.0658 17.9091C63.0658 15.642 62.6866 13.7287 61.9281 12.169C61.1781 10.6094 60.1596 9.42898 58.8727 8.62784C57.5942 7.8267 56.1624 7.42614 54.5772 7.42614C52.992 7.42614 51.5559 7.8267 50.269 8.62784C48.9906 9.42898 47.9721 10.6094 47.2136 12.169C46.4636 13.7287 46.0886 15.642 46.0886 17.9091C46.0886 20.1761 46.4636 22.0895 47.2136 23.6491C47.9721 25.2088 48.9906 26.3892 50.269 27.1903C51.5559 27.9915 52.992 28.392 54.5772 28.392C56.1624 28.392 57.5942 27.9915 58.8727 27.1903C60.1596 26.3892 61.1781 25.2088 61.9281 23.6491C62.6866 22.0895 63.0658 20.1761 63.0658 17.9091ZM72.4427 13C72.1615 12.1392 71.7907 11.3679 71.3305 10.6861C70.8788 9.99574 70.3376 9.40767 69.7069 8.92188C69.0848 8.43608 68.3774 8.06534 67.5848 7.80966C66.7921 7.55398 65.9228 7.42614 64.9768 7.42614C63.4257 7.42614 62.0152 7.8267 60.7453 8.62784C59.4754 9.42898 58.4654 10.6094 57.7154 12.169C56.9654 13.7287 56.5904 15.642 56.5904 17.9091C56.5904 20.1761 56.9697 22.0895 57.7282 23.6491C58.4867 25.2088 59.5137 26.3892 60.8092 27.1903C62.1046 27.9915 63.562 28.392 65.1813 28.392C66.6813 28.392 68.0024 28.0724 69.1444 27.4332C70.295 26.7855 71.1899 25.8736 71.8291 24.6974C72.4768 23.5128 72.8007 22.1193 72.8007 20.517L73.7723 20.7216H65.8973V17.9091H75.8688V20.7216C75.8688 22.8778 75.4086 24.7528 74.4882 26.3466C73.5762 27.9403 72.3149 29.1761 70.7041 30.054C69.1018 30.9233 67.2609 31.358 65.1813 31.358C62.8632 31.358 60.8262 30.8125 59.0706 29.7216C57.3234 28.6307 55.9598 27.0795 54.9796 25.0682C54.0081 23.0568 53.5223 20.6705 53.5223 17.9091C53.5223 15.8381 53.7992 13.9759 54.3532 12.3224C54.9157 10.6605 55.7083 9.24574 56.7311 8.07812C57.7538 6.91051 58.964 6.01563 60.3617 5.39347C61.7595 4.77131 63.2978 4.46023 64.9768 4.46023C66.3575 4.46023 67.6444 4.66903 68.8376 5.08665C70.0393 5.49574 71.1089 6.07954 72.0464 6.83807C72.9924 7.58807 73.7808 8.48721 74.4115 9.53551C75.0421 10.5753 75.4768 11.7301 75.7154 13H72.4427Z" fill="#F2F2F2"/>
<path d="M66.134 17.9091C66.134 20.6705 65.6354 23.0568 64.6383 25.0682C63.6411 27.0795 62.2732 28.6307 60.5346 29.7216C58.796 30.8125 56.8102 31.358 54.5772 31.358C52.3442 31.358 50.3585 30.8125 48.6198 29.7216C46.8812 28.6307 45.5133 27.0795 44.5161 25.0682C43.519 23.0568 43.0204 20.6705 43.0204 17.9091C43.0204 15.1477 43.519 12.7614 44.5161 10.75C45.5133 8.73864 46.8812 7.1875 48.6198 6.09659C50.3585 5.00568 52.3442 4.46023 54.5772 4.46023C56.8102 4.46023 58.796 5.00568 60.5346 6.09659C62.2732 7.1875 63.6411 8.73864 64.6383 10.75C65.6354 12.7614 66.134 15.1477 66.134 17.9091ZM63.0658 17.9091C63.0658 15.642 62.6866 13.7287 61.9281 12.169C61.1781 10.6094 60.1596 9.42898 58.8727 8.62784C57.5942 7.8267 56.1624 7.42614 54.5772 7.42614C52.992 7.42614 51.5559 7.8267 50.269 8.62784C48.9906 9.42898 47.9721 10.6094 47.2136 12.169C46.4636 13.7287 46.0886 15.642 46.0886 17.9091C46.0886 20.1761 46.4636 22.0895 47.2136 23.6491C47.9721 25.2088 48.9906 26.3892 50.269 27.1903C51.5559 27.9915 52.992 28.392 54.5772 28.392C56.1624 28.392 57.5942 27.9915 58.8727 27.1903C60.1596 26.3892 61.1781 25.2088 61.9281 23.6491C62.6866 22.0895 63.0658 20.1761 63.0658 17.9091ZM72.4427 13C72.1615 12.1392 71.7907 11.3679 71.3305 10.6861C70.8788 9.99574 70.3376 9.40767 69.7069 8.92188C69.0848 8.43608 68.3774 8.06534 67.5848 7.80966C66.7921 7.55398 65.9228 7.42614 64.9768 7.42614C63.4257 7.42614 62.0152 7.8267 60.7453 8.62784C59.4754 9.42898 58.4654 10.6094 57.7154 12.169C56.9654 13.7287 56.5904 15.642 56.5904 17.9091C56.5904 20.1761 56.9697 22.0895 57.7282 23.6491C58.4867 25.2088 59.5137 26.3892 60.8092 27.1903C62.1046 27.9915 63.562 28.392 65.1813 28.392C66.6813 28.392 68.0024 28.0724 69.1444 27.4332C70.295 26.7855 71.1899 25.8736 71.8291 24.6974C72.4768 23.5128 72.8007 22.1193 72.8007 20.517L73.7723 20.7216H65.8973V17.9091H75.8688V20.7216C75.8688 22.8778 75.4086 24.7528 74.4882 26.3466C73.5762 27.9403 72.3149 29.1761 70.7041 30.054C69.1018 30.9233 67.2609 31.358 65.1813 31.358C62.8632 31.358 60.8262 30.8125 59.0706 29.7216C57.3234 28.6307 55.9598 27.0795 54.9796 25.0682C54.0081 23.0568 53.5223 20.6705 53.5223 17.9091C53.5223 15.8381 53.7992 13.9759 54.3532 12.3224C54.9157 10.6605 55.7083 9.24574 56.7311 8.07812C57.7538 6.91051 58.964 6.01563 60.3617 5.39347C61.7595 4.77131 63.2978 4.46023 64.9768 4.46023C66.3575 4.46023 67.6444 4.66903 68.8376 5.08665C70.0393 5.49574 71.1089 6.07954 72.0464 6.83807C72.9924 7.58807 73.7808 8.48721 74.4115 9.53551C75.0421 10.5753 75.4768 11.7301 75.7154 13H72.4427Z" fill="url(#paint0_diamond_2001_605)"/>
<path d="M0.819 48V39.576H7.3944V48H6.3531V40.5646H1.8603V48H0.819ZM11.9357 48.1755C11.3429 48.1755 10.8437 48.0293 10.4381 47.7367C10.0325 47.4403 9.72444 47.0406 9.51384 46.5375C9.30714 46.0305 9.20379 45.463 9.20379 44.8352C9.20379 44.1994 9.30714 43.63 9.51384 43.1269C9.72444 42.6238 10.0325 42.228 10.4381 41.9394C10.8476 41.6508 11.3488 41.5065 11.9416 41.5065C12.5266 41.5065 13.0297 41.6527 13.4509 41.9452C13.876 42.2338 14.2016 42.6297 14.4278 43.1328C14.654 43.6359 14.7671 44.2034 14.7671 44.8352C14.7671 45.4669 14.654 46.0344 14.4278 46.5375C14.2016 47.0406 13.876 47.4403 13.4509 47.7367C13.0297 48.0293 12.5246 48.1755 11.9357 48.1755ZM9.02829 50.808V41.682H9.95844V46.3327H10.0754V50.808H9.02829ZM11.807 47.222C12.2243 47.222 12.5695 47.1166 12.8425 46.906C13.1155 46.6954 13.3202 46.4107 13.4567 46.052C13.5932 45.6892 13.6615 45.2836 13.6615 44.8352C13.6615 44.3905 13.5932 43.9888 13.4567 43.63C13.3241 43.2712 13.1174 42.9865 12.8366 42.7759C12.5597 42.5653 12.2068 42.46 11.7778 42.46C11.3683 42.46 11.029 42.5614 10.7599 42.7642C10.4908 42.9631 10.2899 43.242 10.1573 43.6008C10.0247 43.9557 9.95844 44.3671 9.95844 44.8352C9.95844 45.2953 10.0228 45.7068 10.1515 46.0695C10.2841 46.4283 10.4869 46.711 10.7599 46.9178C11.0329 47.1206 11.3819 47.222 11.807 47.222ZM18.7406 48.1755C18.1127 48.1755 17.5706 48.0332 17.1143 47.7484C16.6619 47.4637 16.3128 47.0698 16.0671 46.5667C15.8214 46.0636 15.6986 45.4864 15.6986 44.8352C15.6986 44.1721 15.8234 43.591 16.073 43.0918C16.3226 42.5926 16.6755 42.2046 17.1318 41.9277C17.5881 41.6469 18.1244 41.5065 18.7406 41.5065C19.3724 41.5065 19.9164 41.6488 20.3727 41.9335C20.829 42.2143 21.1781 42.6063 21.4199 43.1094C21.6656 43.6086 21.7884 44.1839 21.7884 44.8352C21.7884 45.4942 21.6656 46.0753 21.4199 46.5784C21.1742 47.0776 20.8232 47.4696 20.3669 47.7543C19.9106 48.0351 19.3685 48.1755 18.7406 48.1755ZM18.7406 47.1868C19.3958 47.1868 19.8833 46.9684 20.2031 46.5316C20.5229 46.0948 20.6828 45.5294 20.6828 44.8352C20.6828 44.1214 20.5209 43.554 20.1972 43.1328C19.8735 42.7077 19.388 42.4951 18.7406 42.4951C18.2999 42.4951 17.9372 42.5946 17.6525 42.7935C17.3678 42.9924 17.1552 43.2673 17.0148 43.6183C16.8744 43.9693 16.8042 44.3749 16.8042 44.8352C16.8042 45.5449 16.968 46.1143 17.2956 46.5433C17.6232 46.9723 18.1049 47.1868 18.7406 47.1868ZM22.6084 49.404V47.1401C22.9633 47.1401 23.2168 47.025 23.3689 46.7949C23.521 46.5609 23.6439 46.1767 23.7375 45.6424C23.7999 45.307 23.8506 44.9482 23.8896 44.566C23.9286 44.1838 23.9617 43.7587 23.989 43.2907C24.0202 42.8188 24.0495 42.2826 24.0768 41.682H28.4292V47.1401H29.0434V49.404H28.0489V48H23.6029V49.404H22.6084ZM24.2113 47.1401H27.3879V42.5419H25.0186C25.0069 42.8188 24.9913 43.1094 24.9718 43.4136C24.9523 43.7139 24.9289 44.0142 24.9016 44.3145C24.8782 44.6148 24.849 44.8995 24.8139 45.1686C24.7827 45.4338 24.7456 45.6717 24.7027 45.8823C24.652 46.1748 24.5935 46.4224 24.5272 46.6252C24.4609 46.828 24.3556 46.9996 24.2113 47.1401ZM30.2117 48V41.682H32.9027C33.0626 41.682 33.2342 41.6917 33.4175 41.7112C33.6047 41.7268 33.7743 41.7561 33.9264 41.799C34.2657 41.8887 34.5446 42.0739 34.763 42.3547C34.9853 42.6316 35.0964 42.9826 35.0964 43.4077C35.0964 43.6456 35.0594 43.8523 34.9853 44.0278C34.9151 44.2034 34.8137 44.3555 34.6811 44.4841C34.6226 44.5426 34.5582 44.5953 34.488 44.6421C34.4178 44.6889 34.3476 44.7259 34.2774 44.7533C34.4139 44.7766 34.5524 44.8293 34.6928 44.9112C34.9151 45.0321 35.0886 45.2017 35.2134 45.4201C35.3421 45.6385 35.4065 45.9174 35.4065 46.2567C35.4065 46.6857 35.3031 47.0406 35.0964 47.3214C34.8897 47.5983 34.605 47.7894 34.2423 47.8947C34.0902 47.9376 33.9225 47.9668 33.7392 47.9825C33.5559 47.9942 33.3785 48 33.2069 48H30.2117ZM31.2647 47.1517H33.1484C33.2303 47.1517 33.3278 47.1439 33.4409 47.1283C33.5579 47.1127 33.6612 47.0932 33.7509 47.0698C33.9537 47.0113 34.1 46.9021 34.1897 46.7422C34.2833 46.5823 34.3301 46.4088 34.3301 46.2216C34.3301 45.972 34.2599 45.7692 34.1195 45.6132C33.983 45.4572 33.8016 45.3597 33.5754 45.3207C33.4935 45.2973 33.4038 45.2836 33.3063 45.2797C33.2127 45.2758 33.1289 45.2739 33.0548 45.2739H31.2647V47.1517ZM31.2647 44.4139H32.8325C32.9417 44.4139 33.0567 44.4081 33.1776 44.3964C33.2985 44.3808 33.4038 44.3555 33.4935 44.3204C33.6729 44.254 33.8036 44.1448 33.8855 43.9927C33.9713 43.8367 34.0142 43.6671 34.0142 43.4838C34.0142 43.281 33.9674 43.1035 33.8738 42.9514C33.7841 42.7954 33.6456 42.6882 33.4584 42.6297C33.3336 42.5829 33.1932 42.5575 33.0372 42.5536C32.8851 42.5458 32.7876 42.5419 32.7447 42.5419H31.2647V44.4139ZM41.7531 41.682V48H40.7469V43.3434L37.4358 48H36.5758V41.682H37.582V46.2742L40.899 41.682H41.7531ZM42.6895 48L45.2401 44.841L42.8123 41.682H43.9706L46.3165 44.7825V41.682H47.2642V44.7825L49.61 41.682H50.7683L48.3406 44.841L50.8912 48H49.6802L47.2642 44.8995V48H46.3165V44.8995L43.9004 48H42.6895ZM54.333 48.1755C53.7129 48.1755 53.1708 48.039 52.7067 47.766C52.2465 47.4891 51.8877 47.1049 51.6303 46.6135C51.3729 46.1182 51.2442 45.541 51.2442 44.8819C51.2442 44.1916 51.3709 43.5949 51.6244 43.0918C51.8779 42.5848 52.2309 42.1948 52.6833 41.9218C53.1396 41.6449 53.6739 41.5065 54.2862 41.5065C54.9219 41.5065 55.462 41.6527 55.9066 41.9452C56.3551 42.2377 56.6905 42.655 56.9128 43.1971C57.139 43.7392 57.2365 44.3847 57.2053 45.1335H56.1523V44.7591C56.1406 43.983 55.9827 43.4038 55.6785 43.0217C55.3743 42.6355 54.9219 42.4425 54.3213 42.4425C53.6778 42.4425 53.1883 42.6492 52.8529 43.0626C52.5175 43.476 52.3498 44.0688 52.3498 44.841C52.3498 45.5859 52.5175 46.1631 52.8529 46.5726C53.1883 46.9821 53.6661 47.1868 54.2862 47.1868C54.7035 47.1868 55.0662 47.0913 55.3743 46.9002C55.6824 46.7091 55.9242 46.4341 56.0997 46.0753L57.1 46.4205C56.8543 46.9782 56.4838 47.4111 55.9885 47.7192C55.4971 48.0234 54.9453 48.1755 54.333 48.1755ZM51.9988 45.1335V44.2969H56.6671V45.1335H51.9988ZM58.5019 48V41.682H59.5432V44.3438H62.866V41.682H63.9073V48H62.866V45.3324H59.5432V48H58.5019ZM70.7175 41.682V48H69.7113V43.3434L66.4002 48H65.5402V41.682H66.5464V46.2742L69.8634 41.682H70.7175ZM75.0936 48.1755C74.4735 48.1755 73.9314 48.039 73.4673 47.766C73.0071 47.4891 72.6483 47.1049 72.3909 46.6135C72.1335 46.1182 72.0048 45.541 72.0048 44.8819C72.0048 44.1916 72.1316 43.5949 72.3851 43.0918C72.6386 42.5848 72.9915 42.1948 73.4439 41.9218C73.9002 41.6449 74.4345 41.5065 75.0468 41.5065C75.6825 41.5065 76.2227 41.6527 76.6673 41.9452C77.1158 42.2377 77.4512 42.655 77.6735 43.1971C77.8997 43.7392 77.9972 44.3847 77.966 45.1335H76.913V44.7591C76.9013 43.983 76.7433 43.4038 76.4391 43.0217C76.1349 42.6355 75.6825 42.4425 75.0819 42.4425C74.4384 42.4425 73.949 42.6492 73.6136 43.0626C73.2782 43.476 73.1105 44.0688 73.1105 44.841C73.1105 45.5859 73.2782 46.1631 73.6136 46.5726C73.949 46.9821 74.4267 47.1868 75.0468 47.1868C75.4641 47.1868 75.8268 47.0913 76.1349 46.9002C76.443 46.7091 76.6848 46.4341 76.8603 46.0753L77.8607 46.4205C77.615 46.9782 77.2445 47.4111 76.7492 47.7192C76.2578 48.0234 75.7059 48.1755 75.0936 48.1755ZM72.7595 45.1335V44.2969H77.4278V45.1335H72.7595ZM84.2724 48.1755C83.6328 48.1755 83.0888 48.0332 82.6403 47.7484C82.1957 47.4598 81.8564 47.064 81.6224 46.5609C81.3884 46.0578 81.2675 45.4845 81.2597 44.841C81.2675 44.1819 81.3903 43.6027 81.6282 43.1036C81.87 42.6004 82.2152 42.2085 82.6637 41.9277C83.1122 41.6469 83.6523 41.5065 84.2841 41.5065C84.951 41.5065 85.5243 41.6703 86.004 41.9979C86.4876 42.3255 86.8113 42.774 86.9751 43.3434L85.9455 43.6534C85.8129 43.2868 85.5965 43.0021 85.2962 42.7993C84.9998 42.5965 84.6585 42.4951 84.2724 42.4951C83.8395 42.4951 83.4827 42.5965 83.2019 42.7993C82.9211 42.9982 82.7124 43.2751 82.5759 43.63C82.4394 43.981 82.3692 44.3847 82.3653 44.841C82.3731 45.543 82.535 46.1104 82.8509 46.5433C83.1707 46.9723 83.6445 47.1868 84.2724 47.1868C84.6858 47.1868 85.029 47.0932 85.302 46.906C85.575 46.7149 85.7817 46.44 85.9221 46.0812L86.9751 46.3561C86.7567 46.945 86.4155 47.3955 85.9514 47.7075C85.4873 48.0195 84.9276 48.1755 84.2724 48.1755ZM89.9079 48.1755C89.436 48.1755 89.0402 48.0897 88.7204 47.9181C88.4045 47.7426 88.1646 47.5125 88.0008 47.2278C87.8409 46.9431 87.761 46.6311 87.761 46.2918C87.761 45.9603 87.8234 45.6737 87.9482 45.4318C88.0769 45.1861 88.2563 44.9833 88.4864 44.8234C88.7165 44.6596 88.9914 44.5309 89.3112 44.4373C89.6115 44.3554 89.9469 44.2852 90.3174 44.2267C90.6918 44.1643 91.0701 44.1078 91.4523 44.0571C91.8345 44.0064 92.1914 43.9576 92.5229 43.9108L92.1485 44.1273C92.1602 43.5657 92.0471 43.1503 91.8092 42.8812C91.5752 42.6121 91.1696 42.4776 90.5924 42.4776C90.2102 42.4776 89.8748 42.5653 89.5862 42.7408C89.3015 42.9124 89.1006 43.1932 88.9836 43.5832L87.995 43.2849C88.1471 42.7311 88.4415 42.2962 88.8783 41.9803C89.3151 41.6644 89.8904 41.5065 90.6041 41.5065C91.1774 41.5065 91.6688 41.6098 92.0783 41.8165C92.4917 42.0194 92.7881 42.3275 92.9675 42.7408C93.0572 42.9358 93.1137 43.1484 93.1371 43.3785C93.1605 43.6047 93.1722 43.8426 93.1722 44.0922V48H92.2479V46.4849L92.4644 46.6252C92.2265 47.1361 91.893 47.5222 91.464 47.7836C91.0389 48.0449 90.5202 48.1755 89.9079 48.1755ZM90.0659 47.3038C90.4403 47.3038 90.764 47.2375 91.037 47.1049C91.3139 46.9684 91.5362 46.791 91.7039 46.5726C91.8716 46.3503 91.9808 46.1085 92.0315 45.8472C92.09 45.6522 92.1212 45.4357 92.1251 45.1978C92.1329 44.956 92.1368 44.7708 92.1368 44.6421L92.4995 44.8C92.1602 44.8468 91.8267 44.8917 91.4991 44.9346C91.1715 44.9775 90.8615 45.0243 90.569 45.075C90.2765 45.1218 90.0132 45.1783 89.7792 45.2446C89.6076 45.2992 89.4458 45.3694 89.2937 45.4552C89.1455 45.541 89.0246 45.6522 88.931 45.7887C88.8413 45.9213 88.7964 46.087 88.7964 46.2859C88.7964 46.4575 88.8393 46.6213 88.9251 46.7773C89.0148 46.9333 89.1513 47.0601 89.3346 47.1576C89.5218 47.2551 89.7656 47.3038 90.0659 47.3038ZM97.4135 40.9449C97.121 40.9449 96.8538 40.8727 96.612 40.7284C96.3702 40.5841 96.1772 40.393 96.0329 40.1551C95.8886 39.9133 95.8164 39.6442 95.8164 39.3478H96.6588C96.6588 39.5545 96.7329 39.732 96.8811 39.8802C97.0293 40.0284 97.2068 40.1025 97.4135 40.1025C97.6241 40.1025 97.8015 40.0284 97.9458 39.8802C98.094 39.732 98.1681 39.5545 98.1681 39.3478H99.0105C99.0105 39.6442 98.9384 39.9133 98.7941 40.1551C98.6537 40.393 98.4606 40.5841 98.2149 40.7284C97.9731 40.8727 97.706 40.9449 97.4135 40.9449ZM99.8646 41.682V48H98.8584V43.3434L95.5473 48H94.6874V41.682H95.6936V46.2742L99.0105 41.682H99.8646ZM103.176 48V42.6297H100.976V41.682H106.417V42.6297H104.217V48H103.176ZM110.101 48.1755C109.473 48.1755 108.931 48.0332 108.475 47.7484C108.022 47.4637 107.673 47.0698 107.428 46.5667C107.182 46.0636 107.059 45.4864 107.059 44.8352C107.059 44.1721 107.184 43.591 107.434 43.0918C107.683 42.5926 108.036 42.2046 108.492 41.9277C108.949 41.6469 109.485 41.5065 110.101 41.5065C110.733 41.5065 111.277 41.6488 111.733 41.9335C112.19 42.2143 112.539 42.6063 112.78 43.1094C113.026 43.6086 113.149 44.1839 113.149 44.8352C113.149 45.4942 113.026 46.0753 112.78 46.5784C112.535 47.0776 112.184 47.4696 111.727 47.7543C111.271 48.0351 110.729 48.1755 110.101 48.1755ZM110.101 47.1868C110.756 47.1868 111.244 46.9684 111.564 46.5316C111.883 46.0948 112.043 45.5294 112.043 44.8352C112.043 44.1214 111.881 43.554 111.558 43.1328C111.234 42.7077 110.749 42.4951 110.101 42.4951C109.66 42.4951 109.298 42.5946 109.013 42.7935C108.728 42.9924 108.516 43.2673 108.375 43.6183C108.235 43.9693 108.165 44.3749 108.165 44.8352C108.165 45.5449 108.329 46.1143 108.656 46.5433C108.984 46.9723 109.465 47.1868 110.101 47.1868ZM114.431 48V41.682H117.122C117.282 41.682 117.454 41.6917 117.637 41.7112C117.824 41.7268 117.994 41.7561 118.146 41.799C118.485 41.8887 118.764 42.0739 118.982 42.3547C119.205 42.6316 119.316 42.9826 119.316 43.4077C119.316 43.6456 119.279 43.8523 119.205 44.0278C119.135 44.2034 119.033 44.3555 118.901 44.4841C118.842 44.5426 118.778 44.5953 118.707 44.6421C118.637 44.6889 118.567 44.7259 118.497 44.7533C118.633 44.7766 118.772 44.8293 118.912 44.9112C119.135 45.0321 119.308 45.2017 119.433 45.4201C119.562 45.6385 119.626 45.9174 119.626 46.2567C119.626 46.6857 119.523 47.0406 119.316 47.3214C119.109 47.5983 118.824 47.7894 118.462 47.8947C118.31 47.9376 118.142 47.9668 117.959 47.9825C117.775 47.9942 117.598 48 117.426 48H114.431ZM115.484 47.1517H117.368C117.45 47.1517 117.547 47.1439 117.66 47.1283C117.777 47.1127 117.881 47.0932 117.97 47.0698C118.173 47.0113 118.319 46.9021 118.409 46.7422C118.503 46.5823 118.55 46.4088 118.55 46.2216C118.55 45.972 118.479 45.7692 118.339 45.6132C118.202 45.4572 118.021 45.3597 117.795 45.3207C117.713 45.2973 117.623 45.2836 117.526 45.2797C117.432 45.2758 117.348 45.2739 117.274 45.2739H115.484V47.1517ZM115.484 44.4139H117.052C117.161 44.4139 117.276 44.4081 117.397 44.3964C117.518 44.3808 117.623 44.3555 117.713 44.3204C117.892 44.254 118.023 44.1448 118.105 43.9927C118.191 43.8367 118.234 43.6671 118.234 43.4838C118.234 43.281 118.187 43.1035 118.093 42.9514C118.004 42.7954 117.865 42.6882 117.678 42.6297C117.553 42.5829 117.413 42.5575 117.257 42.5536C117.105 42.5458 117.007 42.5419 116.964 42.5419H115.484V44.4139Z" fill="#686A6E"/>
<defs>
<radialGradient id="paint0_diamond_2001_605" cx="0" cy="0" r="1" gradientUnits="userSpaceOnUse" gradientTransform="translate(-87.2714 -53.4375) rotate(24.0465) scale(275.15 92.3246)">
<stop stop-color="#FFCA8C"/>
<stop offset="1" stop-color="#FF7337"/>
</radialGradient>
</defs>
</svg>
