<svg width="166" height="62" viewBox="0 0 166 62" fill="none" xmlns="http://www.w3.org/2000/svg">
<path d="M148.792 42.6407V16.3594H165.269V19.7729H152.757V27.7805H164.409V31.1811H152.757V39.2272H165.423V42.6407H148.792Z" fill="#3757FF"/>
<path d="M125.147 42.6407V16.3594H134.772C136.637 16.3594 138.181 16.6674 139.404 17.2833C140.628 17.8907 141.543 18.7163 142.151 19.76C142.758 20.7952 143.062 21.963 143.062 23.2634C143.062 24.3584 142.861 25.2824 142.459 26.0352C142.057 26.7795 141.518 27.3784 140.842 27.8318C140.174 28.2767 139.439 28.6018 138.635 28.8071V29.0637C139.507 29.1065 140.358 29.3888 141.188 29.9107C142.027 30.424 142.72 31.1555 143.267 32.1051C143.815 33.0547 144.088 34.2097 144.088 35.5699C144.088 36.9131 143.772 38.1194 143.139 39.1887C142.514 40.2496 141.548 41.0923 140.239 41.7168C138.93 42.3328 137.257 42.6407 135.221 42.6407H125.147ZM129.113 39.2401H134.836C136.735 39.2401 138.096 38.8722 138.917 38.1365C139.738 37.4007 140.149 36.481 140.149 35.3774C140.149 34.5476 139.939 33.7862 139.52 33.0932C139.101 32.4003 138.502 31.8484 137.723 31.4378C136.953 31.0272 136.038 30.8218 134.977 30.8218H129.113V39.2401ZM129.113 27.7291H134.425C135.315 27.7291 136.115 27.558 136.825 27.2158C137.544 26.8736 138.113 26.3945 138.532 25.7786C138.96 25.1541 139.173 24.4183 139.173 23.5714C139.173 22.4849 138.793 21.5737 138.031 20.838C137.27 20.1022 136.102 19.7344 134.528 19.7344H129.113V27.7291Z" fill="#3757FF"/>
<path d="M120.204 29.5C120.204 32.3061 119.69 34.7186 118.664 36.7376C117.637 38.7481 116.23 40.2966 114.442 41.3831C112.662 42.461 110.639 43 108.372 43C106.096 43 104.064 42.461 102.276 41.3831C100.497 40.2966 99.0937 38.7438 98.0671 36.7248C97.0405 34.7058 96.5272 32.2975 96.5272 29.5C96.5272 26.6939 97.0405 24.2856 98.0671 22.2752C99.0937 20.2562 100.497 18.7077 102.276 17.6298C104.064 16.5433 106.096 16 108.372 16C110.639 16 112.662 16.5433 114.442 17.6298C116.23 18.7077 117.637 20.2562 118.664 22.2752C119.69 24.2856 120.204 26.6939 120.204 29.5ZM116.277 29.5C116.277 27.3612 115.93 25.5604 115.237 24.0974C114.553 22.626 113.612 21.5138 112.414 20.7609C111.225 19.9995 109.877 19.6188 108.372 19.6188C106.858 19.6188 105.506 19.9995 104.317 20.7609C103.127 21.5138 102.186 22.626 101.493 24.0974C100.809 25.5604 100.467 27.3612 100.467 29.5C100.467 31.6388 100.809 33.4439 101.493 34.9154C102.186 36.3783 103.127 37.4905 104.317 38.2519C105.506 39.0048 106.858 39.3812 108.372 39.3812C109.877 39.3812 111.225 39.0048 112.414 38.2519C113.612 37.4905 114.553 36.3783 115.237 34.9154C115.93 33.4439 116.277 31.6388 116.277 29.5Z" fill="#3757FF"/>
<path d="M78 42.6407V16.3594H81.9653V39.2272H93.874V42.6407H78Z" fill="#3757FF"/>
<path d="M24.1481 28.1636V2.04163H40.5254V5.43442H28.0894V13.3935H39.6708V16.7735H28.0894V24.7708H40.6784V28.1636H24.1481Z" fill="#27292F"/>
<path d="M15.2803 8.90382C15.1443 7.69636 14.5831 6.761 13.5967 6.09775C12.6103 5.426 11.3688 5.09012 9.87226 5.09012C8.80085 5.09012 7.874 5.26018 7.0917 5.60031C6.3094 5.93194 5.70142 6.39111 5.26776 6.97784C4.8426 7.55606 4.63001 8.21506 4.63001 8.95484C4.63001 9.57558 4.77457 10.1113 5.06368 10.562C5.36129 11.0126 5.74819 11.391 6.22437 11.6971C6.70906 11.9947 7.22775 12.2456 7.78046 12.4497C8.33317 12.6452 8.86463 12.8068 9.37482 12.9344L11.9258 13.5976C12.7591 13.8017 13.6137 14.078 14.4895 14.4267C15.3654 14.7753 16.1774 15.2345 16.9257 15.8042C17.674 16.3739 18.2777 17.0797 18.7369 17.9215C19.2046 18.7633 19.4384 19.771 19.4384 20.9444C19.4384 22.424 19.0558 23.7377 18.2905 24.8857C17.5337 26.0336 16.4325 26.9392 14.987 27.6024C13.5499 28.2657 11.811 28.5973 9.77022 28.5973C7.81448 28.5973 6.12233 28.287 4.69379 27.6662C3.26524 27.0455 2.14707 26.1654 1.33926 25.026C0.531452 23.878 0.0850323 22.5175 0 20.9444H3.95401C4.03054 21.8883 4.33665 22.6748 4.87236 23.3041C5.41656 23.9248 6.10958 24.3882 6.9514 24.6943C7.80172 24.992 8.73283 25.1408 9.74471 25.1408C10.8586 25.1408 11.8493 24.9664 12.7166 24.6178C13.5924 24.2607 14.2812 23.7675 14.7829 23.1382C15.2846 22.5005 15.5354 21.7565 15.5354 20.9061C15.5354 20.1324 15.3143 19.4989 14.8722 19.0057C14.4385 18.5125 13.8475 18.1043 13.0992 17.7812C12.3595 17.4581 11.5219 17.1732 10.5865 16.9266L7.49986 16.0848C5.40806 15.5151 3.74993 14.6775 2.52546 13.5721C1.3095 12.4667 0.701517 11.0041 0.701517 9.18443C0.701517 7.67935 1.10967 6.3656 1.92598 5.24318C2.7423 4.12075 3.84772 3.24917 5.24225 2.62843C6.63678 1.99919 8.20988 1.68457 9.96155 1.68457C11.7302 1.68457 13.2906 1.99494 14.6426 2.61568C16.0031 3.23641 17.0745 4.09099 17.8568 5.1794C18.6391 6.25931 19.0473 7.50079 19.0813 8.90382H15.2803Z" fill="#27292F"/>
<path fill-rule="evenodd" clip-rule="evenodd" d="M65.2431 23.9775C65.3213 24.173 65.3934 24.3742 65.4594 24.5813H69.4894C69.2691 23.31 68.8453 22.1531 68.2181 21.1107C68.201 21.0819 68.1837 21.0533 68.1663 21.0248C67.5475 20.0103 66.7723 19.132 65.8408 18.3901C65.7322 18.3028 65.6218 18.2178 65.5097 18.1351C64.6416 17.4948 63.6671 16.9907 62.5862 16.6229C62.4792 16.5863 62.3715 16.5512 62.263 16.5178C61.1423 16.1726 59.9406 16 58.6579 16C57.4897 16 56.3845 16.1484 55.3424 16.4452C54.8799 16.5769 54.4298 16.7379 53.9922 16.9281C53.3149 17.2201 52.6794 17.5751 52.0855 17.9933C51.4384 18.449 50.8407 18.9796 50.2927 19.5851C49.941 19.9739 49.6159 20.3912 49.3172 20.837C49.7469 21.499 50.2458 22.1159 50.8066 22.6766C50.8311 22.7012 50.8557 22.7256 50.8805 22.7498C51.2498 23.1124 51.6427 23.4484 52.0564 23.7559C52.3025 23.2721 52.5774 22.8296 52.8812 22.4284C53.4067 21.7342 54.0186 21.1636 54.7168 20.7165C55.0666 20.4926 55.4292 20.3018 55.8044 20.1444C56.6928 19.7715 57.6524 19.5851 58.6833 19.5851C59.5478 19.5851 60.3402 19.6995 61.0607 19.9283C61.3145 20.008 61.5586 20.1006 61.793 20.206C62.2314 20.4032 62.6357 20.6455 63.0058 20.9327C63.5736 21.3649 64.0609 21.8904 64.4678 22.5091C64.5248 22.5929 64.5802 22.6782 64.634 22.765C64.867 23.1408 65.07 23.5449 65.2431 23.9775ZM50.9029 29.3614C50.9029 28.5754 50.9503 27.8349 51.0452 27.1401C51.0172 27.1227 50.9893 27.1052 50.9614 27.0876C50.0454 26.5087 49.1942 25.8287 48.4244 25.0589C48.1745 24.809 47.9342 24.5506 47.7036 24.2842C47.2345 25.8126 47 27.5135 47 29.3869C47 32.1329 47.4958 34.506 48.4874 36.5062C49.479 38.4979 50.8605 40.0362 52.6319 41.121C54.4117 42.2059 56.4797 42.7483 58.8359 42.7483C60.9378 42.7483 62.8023 42.3118 64.4296 41.4389C66.0654 40.5659 67.3451 39.3285 68.269 37.7266C69.2013 36.1163 69.6674 34.2178 69.6674 32.0312V29.069H61.7038H59.4334V29.3448V32.3109H65.8644C65.8395 33.6634 65.5477 34.8457 64.989 35.8578C64.4127 36.9088 63.5948 37.7224 62.5354 38.2987C61.4844 38.875 60.2513 39.1632 58.8359 39.1632C57.3103 39.1632 55.95 38.7861 54.755 38.0317C53.5599 37.2774 52.6192 36.1714 51.9327 34.7136C51.2462 33.2559 50.9029 31.4718 50.9029 29.3614Z" fill="#3757FF"/>
<path d="M48.4244 25.0589C49.1942 25.8287 50.0454 26.5087 50.9614 27.0876C50.9893 27.1052 51.0172 27.1227 51.0452 27.1401C51.2039 25.9771 51.4955 24.9419 51.92 24.0347C51.9644 23.9403 52.0099 23.8474 52.0564 23.7559C51.6427 23.4484 51.2498 23.1124 50.8805 22.7498C50.8557 22.7256 50.8311 22.7012 50.8066 22.6766C50.2458 22.1159 49.7469 21.499 49.3172 20.837C48.7306 21.7126 48.2464 22.698 47.8645 23.7931C47.8081 23.9548 47.7545 24.1185 47.7036 24.2842C47.9342 24.5506 48.1745 24.809 48.4244 25.0589Z" fill="#3757FF"/>
<path fill-rule="evenodd" clip-rule="evenodd" d="M68.2181 21.1107C68.8453 22.1531 69.2691 23.31 69.4894 24.5813H69.6403C70.7897 23.3235 71.7125 21.8739 72.3658 20.2966C73.1035 18.5157 73.4832 16.6068 73.4832 14.6791C73.4832 12.7515 73.1035 10.8426 72.3658 9.06168C71.6281 7.28072 70.5469 5.66251 69.1838 4.29942C67.8207 2.93634 66.2025 1.85508 64.4215 1.11738C62.6406 0.379688 60.7318 2.29494e-07 58.8041 0L58.8003 4.58988e-07C56.8739 0.000490658 54.9664 0.380164 53.1866 1.11738C51.4057 1.85508 49.7874 2.93634 48.4244 4.29942C47.0613 5.66251 45.98 7.28072 45.2423 9.06168C44.5046 10.8426 44.1249 12.7515 44.1249 14.6791C44.1249 16.6068 44.5046 18.5157 45.2423 20.2966C45.8448 21.7511 46.6765 23.0971 47.7036 24.2842C47.7545 24.1185 47.8081 23.9548 47.8645 23.7931C48.2464 22.698 48.7306 21.7126 49.3172 20.837C48.9421 20.2592 48.6198 19.6469 48.3549 19.0074C48.0027 18.1573 47.7565 17.2694 47.6201 16.3636H51.9642C51.9914 16.9117 52.0319 17.4559 52.0855 17.9933C52.6794 17.5751 53.3149 17.2201 53.9922 16.9281C54.4298 16.7379 54.8799 16.5769 55.3424 16.4452L55.3378 16.3636C55.2585 15.3352 55.3047 13.6891 55.3378 12.9947C55.395 11.9579 55.5049 10.9448 55.6645 9.98165C55.9102 8.4988 56.2648 7.18768 56.6934 6.11614C57.1272 5.03159 57.5988 4.28765 58.0274 3.8438C58.45 3.40622 58.715 3.36898 58.8041 3.36898C58.8941 3.36898 59.1606 3.40714 59.5823 3.8438C60.0109 4.28765 60.4825 5.03159 60.9163 6.11614C61.3449 7.18768 61.6995 8.4988 61.9452 9.98165C62.1048 10.9448 62.2147 11.9579 62.2719 12.9947C62.3078 13.6617 62.3579 15.2694 62.2719 16.3636C62.2691 16.4151 62.2661 16.4665 62.263 16.5178C62.3715 16.5512 62.4792 16.5863 62.5862 16.6229C63.6671 16.9907 64.6416 17.4948 65.5097 18.1351C65.5706 17.5517 65.6159 16.96 65.6455 16.3636H69.9881C69.8517 17.2694 69.6054 18.1573 69.2533 19.0074C68.9595 19.7166 68.595 20.3924 68.1663 21.0248C68.1837 21.0533 68.201 21.0819 68.2181 21.1107ZM51.9642 12.9947C52.0246 11.7768 52.1507 10.5783 52.3408 9.43096C52.6176 7.76065 53.0287 6.20673 53.5654 4.86493C53.6011 4.77558 53.6375 4.68695 53.6746 4.59908C52.6167 5.1374 51.6485 5.83976 50.8066 6.68165C49.7563 7.7319 48.9232 8.97872 48.3549 10.3509C48.0027 11.201 47.7565 12.0889 47.6201 12.9947H51.9642ZM65.2689 9.43097C65.459 10.5783 65.5851 11.7768 65.6455 12.9947H69.9881C69.8517 12.0889 69.6054 11.201 69.2533 10.3509C68.6849 8.97872 67.8518 7.7319 66.8016 6.68165C65.9602 5.84028 64.9927 5.13827 63.9356 4.60007C63.9725 4.68762 64.0087 4.77592 64.0443 4.86493C64.581 6.20673 64.9921 7.76065 65.2689 9.43097Z" fill="#3757FF"/>
<path d="M46.819 59V50.576H53.3944V59H52.3531V51.5646H47.8603V59H46.819ZM57.9357 59.1755C57.3429 59.1755 56.8437 59.0293 56.4381 58.7367C56.0325 58.4403 55.7244 58.0406 55.5138 57.5375C55.3071 57.0305 55.2038 56.463 55.2038 55.8352C55.2038 55.1994 55.3071 54.63 55.5138 54.1269C55.7244 53.6238 56.0325 53.228 56.4381 52.9394C56.8476 52.6508 57.3488 52.5065 57.9416 52.5065C58.5266 52.5065 59.0297 52.6527 59.4509 52.9452C59.876 53.2338 60.2016 53.6297 60.4278 54.1328C60.654 54.6359 60.7671 55.2034 60.7671 55.8352C60.7671 56.4669 60.654 57.0344 60.4278 57.5375C60.2016 58.0406 59.876 58.4403 59.4509 58.7367C59.0297 59.0293 58.5246 59.1755 57.9357 59.1755ZM55.0283 61.808V52.682H55.9584V57.3327H56.0754V61.808H55.0283ZM57.807 58.222C58.2243 58.222 58.5695 58.1166 58.8425 57.906C59.1155 57.6954 59.3202 57.4107 59.4567 57.052C59.5932 56.6892 59.6615 56.2836 59.6615 55.8352C59.6615 55.3905 59.5932 54.9888 59.4567 54.63C59.3241 54.2712 59.1174 53.9865 58.8366 53.7759C58.5597 53.5653 58.2068 53.46 57.7778 53.46C57.3683 53.46 57.029 53.5614 56.7599 53.7642C56.4908 53.9631 56.2899 54.242 56.1573 54.6008C56.0247 54.9557 55.9584 55.3671 55.9584 55.8352C55.9584 56.2953 56.0228 56.7068 56.1515 57.0695C56.2841 57.4283 56.4869 57.711 56.7599 57.9178C57.0329 58.1206 57.3819 58.222 57.807 58.222ZM64.7406 59.1755C64.1127 59.1755 63.5706 59.0332 63.1143 58.7484C62.6619 58.4637 62.3128 58.0698 62.0671 57.5667C61.8214 57.0636 61.6986 56.4864 61.6986 55.8352C61.6986 55.1721 61.8234 54.591 62.073 54.0918C62.3226 53.5926 62.6755 53.2046 63.1318 52.9277C63.5881 52.6469 64.1244 52.5065 64.7406 52.5065C65.3724 52.5065 65.9164 52.6488 66.3727 52.9335C66.829 53.2143 67.1781 53.6063 67.4199 54.1094C67.6656 54.6086 67.7884 55.1839 67.7884 55.8352C67.7884 56.4942 67.6656 57.0753 67.4199 57.5784C67.1742 58.0776 66.8232 58.4696 66.3669 58.7543C65.9106 59.0351 65.3685 59.1755 64.7406 59.1755ZM64.7406 58.1868C65.3958 58.1868 65.8833 57.9684 66.2031 57.5316C66.5229 57.0948 66.6828 56.5294 66.6828 55.8352C66.6828 55.1214 66.5209 54.554 66.1972 54.1328C65.8735 53.7077 65.388 53.4951 64.7406 53.4951C64.2999 53.4951 63.9372 53.5946 63.6525 53.7935C63.3678 53.9924 63.1552 54.2673 63.0148 54.6183C62.8744 54.9693 62.8042 55.3749 62.8042 55.8352C62.8042 56.5449 62.968 57.1143 63.2956 57.5433C63.6232 57.9723 64.1049 58.1868 64.7406 58.1868ZM68.6084 60.404V58.1401C68.9633 58.1401 69.2168 58.025 69.3689 57.7949C69.521 57.5609 69.6439 57.1767 69.7375 56.6424C69.7999 56.307 69.8506 55.9482 69.8896 55.566C69.9286 55.1838 69.9617 54.7587 69.989 54.2907C70.0202 53.8188 70.0495 53.2826 70.0768 52.682H74.4292V58.1401H75.0434V60.404H74.0489V59H69.6029V60.404H68.6084ZM70.2113 58.1401H73.3879V53.5419H71.0186C71.0069 53.8188 70.9913 54.1094 70.9718 54.4136C70.9523 54.7139 70.9289 55.0142 70.9016 55.3145C70.8782 55.6148 70.849 55.8995 70.8139 56.1686C70.7827 56.4338 70.7456 56.6717 70.7027 56.8823C70.652 57.1748 70.5935 57.4224 70.5272 57.6252C70.4609 57.828 70.3556 57.9996 70.2113 58.1401ZM76.2117 59V52.682H78.9027C79.0626 52.682 79.2342 52.6917 79.4175 52.7112C79.6047 52.7268 79.7743 52.7561 79.9264 52.799C80.2657 52.8887 80.5446 53.0739 80.763 53.3547C80.9853 53.6316 81.0964 53.9826 81.0964 54.4077C81.0964 54.6456 81.0594 54.8523 80.9853 55.0278C80.9151 55.2034 80.8137 55.3555 80.6811 55.4841C80.6226 55.5426 80.5582 55.5953 80.488 55.6421C80.4178 55.6889 80.3476 55.7259 80.2774 55.7533C80.4139 55.7766 80.5524 55.8293 80.6928 55.9112C80.9151 56.0321 81.0886 56.2017 81.2134 56.4201C81.3421 56.6385 81.4065 56.9174 81.4065 57.2567C81.4065 57.6857 81.3031 58.0406 81.0964 58.3214C80.8897 58.5983 80.605 58.7894 80.2423 58.8947C80.0902 58.9376 79.9225 58.9668 79.7392 58.9825C79.5559 58.9942 79.3785 59 79.2069 59H76.2117ZM77.2647 58.1517H79.1484C79.2303 58.1517 79.3278 58.1439 79.4409 58.1283C79.5579 58.1127 79.6612 58.0932 79.7509 58.0698C79.9537 58.0113 80.1 57.9021 80.1897 57.7422C80.2833 57.5823 80.3301 57.4088 80.3301 57.2216C80.3301 56.972 80.2599 56.7692 80.1195 56.6132C79.983 56.4572 79.8016 56.3597 79.5754 56.3207C79.4935 56.2973 79.4038 56.2836 79.3063 56.2797C79.2127 56.2758 79.1289 56.2739 79.0548 56.2739H77.2647V58.1517ZM77.2647 55.4139H78.8325C78.9417 55.4139 79.0567 55.4081 79.1776 55.3964C79.2985 55.3808 79.4038 55.3555 79.4935 55.3204C79.6729 55.254 79.8036 55.1448 79.8855 54.9927C79.9713 54.8367 80.0142 54.6671 80.0142 54.4838C80.0142 54.281 79.9674 54.1035 79.8738 53.9514C79.7841 53.7954 79.6456 53.6882 79.4584 53.6297C79.3336 53.5829 79.1932 53.5575 79.0372 53.5536C78.8851 53.5458 78.7876 53.5419 78.7447 53.5419H77.2647V55.4139ZM87.7531 52.682V59H86.7469V54.3434L83.4358 59H82.5758V52.682H83.582V57.2742L86.899 52.682H87.7531ZM88.6895 59L91.2401 55.841L88.8123 52.682H89.9706L92.3165 55.7825V52.682H93.2642V55.7825L95.61 52.682H96.7683L94.3406 55.841L96.8912 59H95.6802L93.2642 55.8995V59H92.3165V55.8995L89.9004 59H88.6895ZM100.333 59.1755C99.7129 59.1755 99.1708 59.039 98.7067 58.766C98.2465 58.4891 97.8877 58.1049 97.6303 57.6135C97.3729 57.1182 97.2442 56.541 97.2442 55.8819C97.2442 55.1916 97.3709 54.5949 97.6244 54.0918C97.8779 53.5848 98.2309 53.1948 98.6833 52.9218C99.1396 52.6449 99.6739 52.5065 100.286 52.5065C100.922 52.5065 101.462 52.6527 101.907 52.9452C102.355 53.2377 102.691 53.655 102.913 54.1971C103.139 54.7392 103.237 55.3847 103.205 56.1335H102.152V55.7591C102.141 54.983 101.983 54.4038 101.678 54.0217C101.374 53.6355 100.922 53.4425 100.321 53.4425C99.6778 53.4425 99.1883 53.6492 98.8529 54.0626C98.5175 54.476 98.3498 55.0688 98.3498 55.841C98.3498 56.5859 98.5175 57.1631 98.8529 57.5726C99.1883 57.9821 99.6661 58.1868 100.286 58.1868C100.703 58.1868 101.066 58.0913 101.374 57.9002C101.682 57.7091 101.924 57.4341 102.1 57.0753L103.1 57.4205C102.854 57.9782 102.484 58.4111 101.989 58.7192C101.497 59.0234 100.945 59.1755 100.333 59.1755ZM97.9988 56.1335V55.2969H102.667V56.1335H97.9988ZM104.502 59V52.682H105.543V55.3438H108.866V52.682H109.907V59H108.866V56.3324H105.543V59H104.502ZM116.717 52.682V59H115.711V54.3434L112.4 59H111.54V52.682H112.546V57.2742L115.863 52.682H116.717ZM121.094 59.1755C120.474 59.1755 119.931 59.039 119.467 58.766C119.007 58.4891 118.648 58.1049 118.391 57.6135C118.134 57.1182 118.005 56.541 118.005 55.8819C118.005 55.1916 118.132 54.5949 118.385 54.0918C118.639 53.5848 118.992 53.1948 119.444 52.9218C119.9 52.6449 120.435 52.5065 121.047 52.5065C121.683 52.5065 122.223 52.6527 122.667 52.9452C123.116 53.2377 123.451 53.655 123.673 54.1971C123.9 54.7392 123.997 55.3847 123.966 56.1335H122.913V55.7591C122.901 54.983 122.743 54.4038 122.439 54.0217C122.135 53.6355 121.683 53.4425 121.082 53.4425C120.438 53.4425 119.949 53.6492 119.614 54.0626C119.278 54.476 119.11 55.0688 119.11 55.841C119.11 56.5859 119.278 57.1631 119.614 57.5726C119.949 57.9821 120.427 58.1868 121.047 58.1868C121.464 58.1868 121.827 58.0913 122.135 57.9002C122.443 57.7091 122.685 57.4341 122.86 57.0753L123.861 57.4205C123.615 57.9782 123.244 58.4111 122.749 58.7192C122.258 59.0234 121.706 59.1755 121.094 59.1755ZM118.759 56.1335V55.2969H123.428V56.1335H118.759ZM130.272 59.1755C129.633 59.1755 129.089 59.0332 128.64 58.7484C128.196 58.4598 127.856 58.064 127.622 57.5609C127.388 57.0578 127.267 56.4845 127.26 55.841C127.267 55.1819 127.39 54.6027 127.628 54.1036C127.87 53.6004 128.215 53.2085 128.664 52.9277C129.112 52.6469 129.652 52.5065 130.284 52.5065C130.951 52.5065 131.524 52.6703 132.004 52.9979C132.488 53.3255 132.811 53.774 132.975 54.3434L131.946 54.6534C131.813 54.2868 131.596 54.0021 131.296 53.7993C131 53.5965 130.659 53.4951 130.272 53.4951C129.84 53.4951 129.483 53.5965 129.202 53.7993C128.921 53.9982 128.712 54.2751 128.576 54.63C128.439 54.981 128.369 55.3847 128.365 55.841C128.373 56.543 128.535 57.1104 128.851 57.5433C129.171 57.9723 129.645 58.1868 130.272 58.1868C130.686 58.1868 131.029 58.0932 131.302 57.906C131.575 57.7149 131.782 57.44 131.922 57.0812L132.975 57.3561C132.757 57.945 132.415 58.3955 131.951 58.7075C131.487 59.0195 130.928 59.1755 130.272 59.1755ZM135.908 59.1755C135.436 59.1755 135.04 59.0897 134.72 58.9181C134.404 58.7426 134.165 58.5125 134.001 58.2278C133.841 57.9431 133.761 57.6311 133.761 57.2918C133.761 56.9603 133.823 56.6737 133.948 56.4318C134.077 56.1861 134.256 55.9833 134.486 55.8234C134.716 55.6596 134.991 55.5309 135.311 55.4373C135.612 55.3554 135.947 55.2852 136.317 55.2267C136.692 55.1643 137.07 55.1078 137.452 55.0571C137.835 55.0064 138.191 54.9576 138.523 54.9108L138.148 55.1273C138.16 54.5657 138.047 54.1503 137.809 53.8812C137.575 53.6121 137.17 53.4776 136.592 53.4776C136.21 53.4776 135.875 53.5653 135.586 53.7408C135.301 53.9124 135.101 54.1932 134.984 54.5832L133.995 54.2849C134.147 53.7311 134.442 53.2962 134.878 52.9803C135.315 52.6644 135.89 52.5065 136.604 52.5065C137.177 52.5065 137.669 52.6098 138.078 52.8165C138.492 53.0194 138.788 53.3275 138.967 53.7408C139.057 53.9358 139.114 54.1484 139.137 54.3785C139.161 54.6047 139.172 54.8426 139.172 55.0922V59H138.248V57.4849L138.464 57.6252C138.226 58.1361 137.893 58.5222 137.464 58.7836C137.039 59.0449 136.52 59.1755 135.908 59.1755ZM136.066 58.3038C136.44 58.3038 136.764 58.2375 137.037 58.1049C137.314 57.9684 137.536 57.791 137.704 57.5726C137.872 57.3503 137.981 57.1085 138.031 56.8472C138.09 56.6522 138.121 56.4357 138.125 56.1978C138.133 55.956 138.137 55.7708 138.137 55.6421L138.499 55.8C138.16 55.8468 137.827 55.8917 137.499 55.9346C137.172 55.9775 136.861 56.0243 136.569 56.075C136.276 56.1218 136.013 56.1783 135.779 56.2446C135.608 56.2992 135.446 56.3694 135.294 56.4552C135.145 56.541 135.025 56.6522 134.931 56.7887C134.841 56.9213 134.796 57.087 134.796 57.2859C134.796 57.4575 134.839 57.6213 134.925 57.7773C135.015 57.9333 135.151 58.0601 135.335 58.1576C135.522 58.2551 135.766 58.3038 136.066 58.3038ZM143.413 51.9449C143.121 51.9449 142.854 51.8727 142.612 51.7284C142.37 51.5841 142.177 51.393 142.033 51.1551C141.889 50.9133 141.816 50.6442 141.816 50.3478H142.659C142.659 50.5545 142.733 50.732 142.881 50.8802C143.029 51.0284 143.207 51.1025 143.413 51.1025C143.624 51.1025 143.802 51.0284 143.946 50.8802C144.094 50.732 144.168 50.5545 144.168 50.3478H145.011C145.011 50.6442 144.938 50.9133 144.794 51.1551C144.654 51.393 144.461 51.5841 144.215 51.7284C143.973 51.8727 143.706 51.9449 143.413 51.9449ZM145.865 52.682V59H144.858V54.3434L141.547 59H140.687V52.682H141.694V57.2742L145.011 52.682H145.865ZM149.176 59V53.6297H146.976V52.682H152.417V53.6297H150.217V59H149.176ZM156.101 59.1755C155.473 59.1755 154.931 59.0332 154.475 58.7484C154.022 58.4637 153.673 58.0698 153.428 57.5667C153.182 57.0636 153.059 56.4864 153.059 55.8352C153.059 55.1721 153.184 54.591 153.434 54.0918C153.683 53.5926 154.036 53.2046 154.492 52.9277C154.949 52.6469 155.485 52.5065 156.101 52.5065C156.733 52.5065 157.277 52.6488 157.733 52.9335C158.19 53.2143 158.539 53.6063 158.78 54.1094C159.026 54.6086 159.149 55.1839 159.149 55.8352C159.149 56.4942 159.026 57.0753 158.78 57.5784C158.535 58.0776 158.184 58.4696 157.727 58.7543C157.271 59.0351 156.729 59.1755 156.101 59.1755ZM156.101 58.1868C156.756 58.1868 157.244 57.9684 157.564 57.5316C157.883 57.0948 158.043 56.5294 158.043 55.8352C158.043 55.1214 157.881 54.554 157.558 54.1328C157.234 53.7077 156.749 53.4951 156.101 53.4951C155.66 53.4951 155.298 53.5946 155.013 53.7935C154.728 53.9924 154.516 54.2673 154.375 54.6183C154.235 54.9693 154.165 55.3749 154.165 55.8352C154.165 56.5449 154.329 57.1143 154.656 57.5433C154.984 57.9723 155.465 58.1868 156.101 58.1868ZM160.431 59V52.682H163.122C163.282 52.682 163.454 52.6917 163.637 52.7112C163.824 52.7268 163.994 52.7561 164.146 52.799C164.485 52.8887 164.764 53.0739 164.982 53.3547C165.205 53.6316 165.316 53.9826 165.316 54.4077C165.316 54.6456 165.279 54.8523 165.205 55.0278C165.135 55.2034 165.033 55.3555 164.901 55.4841C164.842 55.5426 164.778 55.5953 164.707 55.6421C164.637 55.6889 164.567 55.7259 164.497 55.7533C164.633 55.7766 164.772 55.8293 164.912 55.9112C165.135 56.0321 165.308 56.2017 165.433 56.4201C165.562 56.6385 165.626 56.9174 165.626 57.2567C165.626 57.6857 165.523 58.0406 165.316 58.3214C165.109 58.5983 164.824 58.7894 164.462 58.8947C164.31 58.9376 164.142 58.9668 163.959 58.9825C163.775 58.9942 163.598 59 163.426 59H160.431ZM161.484 58.1517H163.368C163.45 58.1517 163.547 58.1439 163.66 58.1283C163.777 58.1127 163.881 58.0932 163.97 58.0698C164.173 58.0113 164.319 57.9021 164.409 57.7422C164.503 57.5823 164.55 57.4088 164.55 57.2216C164.55 56.972 164.479 56.7692 164.339 56.6132C164.202 56.4572 164.021 56.3597 163.795 56.3207C163.713 56.2973 163.623 56.2836 163.526 56.2797C163.432 56.2758 163.348 56.2739 163.274 56.2739H161.484V58.1517ZM161.484 55.4139H163.052C163.161 55.4139 163.276 55.4081 163.397 55.3964C163.518 55.3808 163.623 55.3555 163.713 55.3204C163.892 55.254 164.023 55.1448 164.105 54.9927C164.191 54.8367 164.234 54.6671 164.234 54.4838C164.234 54.281 164.187 54.1035 164.093 53.9514C164.004 53.7954 163.865 53.6882 163.678 53.6297C163.553 53.5829 163.413 53.5575 163.257 53.5536C163.105 53.5458 163.007 53.5419 162.964 53.5419H161.484V55.4139Z" fill="#686A6E"/>
</svg>
