<svg width="104" height="28" viewBox="0 0 104 28" fill="none" xmlns="http://www.w3.org/2000/svg">
<path d="M93.4271 27.2744V10.7722H103.773V12.9155H95.917V17.9435H103.233V20.0788H95.917V25.1311H103.87V27.2744H93.4271Z" fill="#3757FF"/>
<path d="M78.5809 27.2744V10.7722H84.6242C85.7953 10.7722 86.7649 10.9655 87.5331 11.3523C88.3013 11.7337 88.876 12.2521 89.2574 12.9075C89.6388 13.5574 89.8295 14.2907 89.8295 15.1072C89.8295 15.7948 89.7033 16.375 89.4508 16.8477C89.1984 17.315 88.8599 17.6911 88.4356 17.9758C88.0166 18.2551 87.5546 18.4592 87.0496 18.5882V18.7493C87.5975 18.7762 88.132 18.9535 88.6531 19.2811C89.1796 19.6034 89.6147 20.0627 89.9585 20.659C90.3023 21.2553 90.4742 21.9805 90.4742 22.8346C90.4742 23.678 90.2754 24.4354 89.8779 25.1069C89.4857 25.773 88.8787 26.3021 88.0568 26.6943C87.235 27.081 86.1848 27.2744 84.9063 27.2744H78.5809ZM81.0708 25.1391H84.6645C85.8571 25.1391 86.7112 24.9081 87.2269 24.4461C87.7426 23.9842 88.0004 23.4067 88.0004 22.7137C88.0004 22.1927 87.8688 21.7146 87.6056 21.2795C87.3424 20.8443 86.9664 20.4979 86.4775 20.24C85.9941 19.9822 85.4193 19.8532 84.7532 19.8532H81.0708V25.1391ZM81.0708 17.9113H84.4067C84.9654 17.9113 85.4676 17.8039 85.9135 17.589C86.3647 17.3741 86.7219 17.0733 86.9852 16.6865C87.2537 16.2944 87.388 15.8324 87.388 15.3006C87.388 14.6184 87.149 14.0463 86.6709 13.5843C86.1928 13.1223 85.4596 12.8913 84.4711 12.8913H81.0708V17.9113Z" fill="#3757FF"/>
<path d="M75.4766 19.0233C75.4766 20.7852 75.1543 22.3001 74.5097 23.5678C73.8651 24.8302 72.9814 25.8025 71.8587 26.4847C70.7414 27.1616 69.4709 27.5 68.0474 27.5C66.6185 27.5 65.3427 27.1616 64.22 26.4847C63.1026 25.8025 62.2217 24.8275 61.577 23.5598C60.9324 22.292 60.6101 20.7799 60.6101 19.0233C60.6101 17.2613 60.9324 15.7491 61.577 14.4868C62.2217 13.219 63.1026 12.2467 64.22 11.5699C65.3427 10.8876 66.6185 10.5465 68.0474 10.5465C69.4709 10.5465 70.7414 10.8876 71.8587 11.5699C72.9814 12.2467 73.8651 13.219 74.5097 14.4868C75.1543 15.7491 75.4766 17.2613 75.4766 19.0233ZM73.011 19.0233C73.011 17.6803 72.7934 16.5495 72.3583 15.631C71.9285 14.707 71.3376 14.0087 70.5856 13.5359C69.8389 13.0579 68.9928 12.8188 68.0474 12.8188C67.0966 12.8188 66.2478 13.0579 65.5012 13.5359C64.7545 14.0087 64.1636 14.707 63.7285 15.631C63.2987 16.5495 63.0838 17.6803 63.0838 19.0233C63.0838 20.3662 63.2987 21.4997 63.7285 22.4236C64.1636 23.3422 64.7545 24.0406 65.5012 24.5186C66.2478 24.9914 67.0966 25.2277 68.0474 25.2277C68.9928 25.2277 69.8389 24.9914 70.5856 24.5186C71.3376 24.0406 71.9285 23.3422 72.3583 22.4236C72.7934 21.4997 73.011 20.3662 73.011 19.0233Z" fill="#3757FF"/>
<path d="M48.9768 27.2744V10.7722H51.4666V25.1311H58.9442V27.2744H48.9768Z" fill="#3757FF"/>
<path d="M15.1627 18.1841V1.78195H25.4461V3.91231H17.6375V8.90984H24.9095V11.0322H17.6375V16.0538H25.5422V18.1841H15.1627Z" fill="#27292F"/>
<path d="M9.59462 6.09074C9.50919 5.33257 9.1568 4.74525 8.53745 4.32879C7.9181 3.90699 7.13857 3.69609 6.19886 3.69609C5.52612 3.69609 4.94414 3.80288 4.45293 4.01645C3.96172 4.22468 3.57996 4.513 3.30766 4.8814C3.0407 5.24447 2.90722 5.65826 2.90722 6.12278C2.90722 6.51254 2.99799 6.84891 3.17952 7.1319C3.36639 7.41488 3.60933 7.65247 3.90833 7.84468C4.21266 8.03156 4.53836 8.18907 4.88541 8.31721C5.23246 8.44001 5.56616 8.54146 5.88652 8.62154L7.48829 9.03801C8.01153 9.16615 8.54813 9.33967 9.09807 9.55858C9.64801 9.77749 10.1579 10.0658 10.6278 10.4235C11.0976 10.7813 11.4767 11.2244 11.765 11.753C12.0587 12.2816 12.2055 12.9143 12.2055 13.6511C12.2055 14.5801 11.9652 15.4051 11.4847 16.1259C11.0095 16.8467 10.3181 17.4153 9.41042 17.8317C8.50808 18.2482 7.41621 18.4564 6.13479 18.4564C4.90676 18.4564 3.84426 18.2615 2.94726 17.8718C2.05027 17.482 1.34816 16.9294 0.840931 16.214C0.333703 15.4932 0.0533924 14.6389 0 13.6511H2.48275C2.5308 14.2438 2.72301 14.7376 3.05939 15.1328C3.4011 15.5225 3.83625 15.8135 4.36483 16.0057C4.89876 16.1926 5.4834 16.286 6.11877 16.286C6.81821 16.286 7.44024 16.1766 7.98484 15.9577C8.53478 15.7334 8.96726 15.4237 9.28228 15.0286C9.59729 14.6282 9.7548 14.161 9.7548 13.6271C9.7548 13.1412 9.61598 12.7434 9.33834 12.4338C9.06604 12.1241 8.69496 11.8678 8.22511 11.6649C7.76059 11.462 7.23467 11.2832 6.64736 11.1283L4.70921 10.5997C3.39576 10.242 2.35461 9.71609 1.58576 9.02199C0.822244 8.32789 0.440488 7.40954 0.440488 6.26694C0.440488 5.32189 0.696771 4.49698 1.20934 3.7922C1.72191 3.08742 2.41601 2.54014 3.29164 2.15038C4.16728 1.75528 5.15504 1.55772 6.25492 1.55772C7.36549 1.55772 8.34524 1.75261 9.19418 2.14237C10.0485 2.53214 10.7212 3.06873 11.2124 3.75215C11.7036 4.43024 11.9599 5.20977 11.9813 6.09074H9.59462Z" fill="#27292F"/>
<path fill-rule="evenodd" clip-rule="evenodd" d="M40.9668 15.5556C41.0159 15.6784 41.0611 15.8048 41.1026 15.9348H43.6331C43.4947 15.1365 43.2286 14.4101 42.8348 13.7555C42.8241 13.7375 42.8132 13.7195 42.8023 13.7016C42.4137 13.0646 41.927 12.5131 41.3421 12.0472C41.2739 11.9925 41.2046 11.9391 41.1342 11.8872C40.5891 11.4851 39.9772 11.1686 39.2985 10.9377C39.2313 10.9146 39.1637 10.8926 39.0956 10.8717C38.3919 10.6549 37.6373 10.5465 36.8319 10.5465C36.0984 10.5465 35.4044 10.6397 34.7501 10.8261C34.4597 10.9088 34.1771 11.0098 33.9023 11.1292C33.477 11.3126 33.0779 11.5355 32.7051 11.7981C32.2987 12.0842 31.9234 12.4174 31.5793 12.7976C31.3585 13.0418 31.1543 13.3038 30.9668 13.5837C31.2366 13.9994 31.5499 14.3867 31.902 14.7388C31.9174 14.7542 31.9329 14.7695 31.9484 14.7848C32.1803 15.0124 32.427 15.2234 32.6868 15.4165C32.8413 15.1127 33.0139 14.8349 33.2047 14.5829C33.5346 14.1471 33.9189 13.7888 34.3573 13.5081C34.5769 13.3674 34.8045 13.2477 35.0401 13.1488C35.598 12.9147 36.2006 12.7976 36.8478 12.7976C37.3907 12.7976 37.8882 12.8695 38.3406 13.0131C38.5 13.0632 38.6533 13.1213 38.8004 13.1875C39.0757 13.3113 39.3296 13.4634 39.5619 13.6438C39.9185 13.9152 40.2245 14.2451 40.4799 14.6336C40.5157 14.6862 40.5506 14.7398 40.5844 14.7943C40.7306 15.0302 40.8581 15.284 40.9668 15.5556ZM31.9625 18.9362C31.9625 18.4427 31.9923 17.9777 32.0518 17.5415C32.0342 17.5305 32.0167 17.5196 31.9992 17.5085C31.4241 17.145 30.8896 16.718 30.4062 16.2346C30.2493 16.0778 30.0984 15.9155 29.9536 15.7482C29.6591 16.7079 29.5118 17.7759 29.5118 18.9522C29.5118 20.6765 29.8231 22.1665 30.4458 23.4225C31.0684 24.6731 31.9359 25.639 33.0481 26.3202C34.1657 27.0014 35.4642 27.342 36.9436 27.342C38.2634 27.342 39.4342 27.0679 40.456 26.5197C41.4831 25.9716 42.2867 25.1946 42.8667 24.1888C43.4521 23.1777 43.7448 21.9856 43.7448 20.6126V18.7526H38.7444H37.3188V18.9258V20.7882H41.3569C41.3413 21.6375 41.158 22.3798 40.8072 23.0154C40.4453 23.6753 39.9318 24.1862 39.2666 24.548C38.6067 24.9099 37.8324 25.0908 36.9436 25.0908C35.9857 25.0908 35.1316 24.854 34.3812 24.3804C33.6308 23.9068 33.0401 23.2123 32.6091 22.2969C32.178 21.3816 31.9625 20.2614 31.9625 18.9362Z" fill="#3757FF"/>
<path d="M30.4062 16.2346C30.8896 16.718 31.4241 17.145 31.9992 17.5085C32.0167 17.5196 32.0342 17.5305 32.0518 17.5415C32.1515 16.8112 32.3346 16.1612 32.6011 15.5915C32.629 15.5323 32.6576 15.4739 32.6868 15.4165C32.427 15.2234 32.1803 15.0124 31.9484 14.7848C31.9329 14.7695 31.9174 14.7542 31.902 14.7388C31.5499 14.3867 31.2366 13.9994 30.9668 13.5837C30.5985 14.1335 30.2944 14.7522 30.0546 15.4399C30.0192 15.5414 29.9856 15.6442 29.9536 15.7482C30.0984 15.9155 30.2493 16.0778 30.4062 16.2346Z" fill="#3757FF"/>
<path fill-rule="evenodd" clip-rule="evenodd" d="M42.8348 13.7555C43.2286 14.4101 43.4947 15.1365 43.6331 15.9348H43.7278C44.4495 15.145 45.029 14.2348 45.4392 13.2444C45.9024 12.1261 46.1408 10.9275 46.1408 9.71714C46.1408 8.50673 45.9024 7.30817 45.4392 6.18989C44.976 5.07162 44.2971 4.05553 43.4412 3.19964C42.5853 2.34375 41.5692 1.66482 40.4509 1.20161C39.3327 0.738409 38.1341 0.5 36.9237 0.5L36.9213 0.5C35.7117 0.500308 34.514 0.738707 33.3964 1.20161C32.2782 1.66482 31.2621 2.34375 30.4062 3.19964C29.5503 4.05553 28.8714 5.07162 28.4082 6.18989C27.945 7.30816 27.7065 8.50672 27.7065 9.71714C27.7065 10.9275 27.945 12.1261 28.4082 13.2444C28.7865 14.1577 29.3087 15.0028 29.9536 15.7482C29.9856 15.6442 30.0192 15.5414 30.0546 15.4399C30.2944 14.7522 30.5985 14.1335 30.9668 13.5837C30.7313 13.2209 30.5289 12.8364 30.3625 12.4348C30.1414 11.9011 29.9868 11.3436 29.9012 10.7748H32.6289C32.6459 11.119 32.6714 11.4607 32.7051 11.7981C33.0779 11.5355 33.477 11.3126 33.9023 11.1292C34.1771 11.0098 34.4597 10.9088 34.7501 10.8261L34.7472 10.7748C34.6974 10.1291 34.7264 9.0955 34.7472 8.65943C34.7831 8.00842 34.8521 7.37232 34.9523 6.76755C35.1066 5.83645 35.3293 5.01319 35.5984 4.34037C35.8708 3.65937 36.1669 3.19224 36.436 2.91355C36.7013 2.63879 36.8677 2.61541 36.9237 2.61541C36.9802 2.61541 37.1475 2.63937 37.4123 2.91355C37.6814 3.19225 37.9775 3.65937 38.2499 4.34037C38.5191 5.01319 38.7418 5.83646 38.896 6.76755C38.9962 7.37232 39.0652 8.00842 39.1012 8.65943C39.1237 9.0783 39.1551 10.0878 39.1012 10.7748C39.0994 10.8071 39.0975 10.8394 39.0956 10.8717C39.1637 10.8926 39.2313 10.9146 39.2985 10.9377C39.9772 11.1686 40.5891 11.4851 41.1342 11.8872C41.1724 11.5209 41.2009 11.1493 41.2195 10.7748H43.9462C43.8605 11.3436 43.7059 11.9011 43.4848 12.4349C43.3004 12.8802 43.0715 13.3045 42.8023 13.7016C42.8132 13.7195 42.8241 13.7375 42.8348 13.7555ZM32.6289 8.65943C32.6668 7.89473 32.746 7.14221 32.8654 6.42177C33.0391 5.37296 33.2973 4.39725 33.6343 3.55472C33.6567 3.49862 33.6796 3.44297 33.7028 3.38779C33.0386 3.72581 32.4306 4.16682 31.902 4.69546C31.2425 5.35491 30.7194 6.1378 30.3625 6.99942C30.1414 7.5332 29.9868 8.09071 29.9012 8.65943H32.6289ZM40.983 6.42177C41.1023 7.14222 41.1815 7.89473 41.2195 8.65943H43.9462C43.8605 8.09071 43.7059 7.5332 43.4848 6.99942C43.1279 6.1378 42.6048 5.35491 41.9454 4.69546C41.4171 4.16715 40.8095 3.72635 40.1458 3.38842C40.1689 3.44339 40.1917 3.49884 40.2141 3.55473C40.5511 4.39725 40.8092 5.37297 40.983 6.42177Z" fill="#3757FF"/>
</svg>
