<svg width="18" height="18" viewBox="0 0 18 18" fill="none" xmlns="http://www.w3.org/2000/svg">
<path d="M8.51218 7.16659H9.48718M8.51218 8.16659H9.48718M15.5 7.4C15.5 10.9346 10.625 17 9 17C7.375 17 2.5 10.9346 2.5 7.4C2.5 3.86538 5.41015 1 9 1C12.5899 1 15.5 3.86538 15.5 7.4ZM10.3 7.66667C10.3 8.40305 9.71797 9 9 9C8.28203 9 7.7 8.40305 7.7 7.66667C7.7 6.93029 8.28203 6.33333 9 6.33333C9.71797 6.33333 10.3 6.93029 10.3 7.66667Z" stroke="#FF7337" stroke-width="1.5" stroke-linecap="round"/>
</svg>
