<svg width="20" height="20" viewBox="0 0 20 20" fill="none" xmlns="http://www.w3.org/2000/svg">
<path d="M10 4.6V19M10 4.6H6.81786C6.34899 4.6 5.89933 4.41036 5.56779 4.07279C5.23626 3.73523 5.05 3.27739 5.05 2.8C5.05 2.32261 5.23626 1.86477 5.56779 1.52721C5.89933 1.18964 6.34899 1 6.81786 1C9.29286 1 10 4.6 10 4.6ZM10 4.6H13.1821C13.651 4.6 14.1007 4.41036 14.4322 4.07279C14.7637 3.73523 14.95 3.27739 14.95 2.8C14.95 2.32261 14.7637 1.86477 14.4322 1.52721C14.1007 1.18964 13.651 1 13.1821 1C10.7071 1 10 4.6 10 4.6ZM17.2 9.1V16.12C17.2 17.1281 17.2 19 17.2 19C17.2 19 15.3281 19 14.32 19L5.68 19C4.67191 19 2.8 19 2.8 19C2.8 19 2.8 17.1281 2.8 16.12V9.1M1 6.04L1 7.66C1 8.16405 1.00002 9.1 1.00002 9.1C1.00002 9.1 1.93595 9.1 2.44 9.1L17.56 9.1C18.064 9.1 19 9.00191 19 9.00191C19 9.00191 19 8.16405 19 7.66V6.04C19 5.53595 19 4.6 19 4.6C19 4.6 18.064 4.6 17.56 4.6L2.44 4.6C1.93595 4.6 1.00002 4.6 1.00002 4.6C1.00002 4.6 1 5.53595 1 6.04Z" stroke="white" stroke-width="1.5" stroke-linecap="round"/>
</svg>
