<svg width="18" height="19" viewBox="0 0 18 19" fill="none" xmlns="http://www.w3.org/2000/svg">
<path d="M10.1088 15.3334C9.81596 15.0405 9.34108 15.0405 9.04819 15.3334C8.7553 15.6263 8.7553 16.1011 9.04819 16.394L10.1088 15.3334ZM14.2067 15.8637L14.737 16.394L14.2067 15.8637ZM2.6363 4.29333L3.16663 4.82366L3.16663 4.82366L2.6363 4.29333ZM2.10597 9.45181C2.39886 9.7447 2.87374 9.7447 3.16663 9.45181C3.45952 9.15892 3.45952 8.68404 3.16663 8.39115L2.10597 9.45181ZM8.42148 3.1363L8.95181 3.66663C9.09247 3.52597 9.17148 3.33521 9.17148 3.1363C9.17148 2.93738 9.09247 2.74662 8.95181 2.60597L8.42148 3.1363ZM3.79333 3.1363L3.263 2.60597L3.263 2.60597L3.79333 3.1363ZM15.3637 10.0785L15.894 9.54819C15.7534 9.40754 15.5626 9.32852 15.3637 9.32852C15.1648 9.32852 14.974 9.40754 14.8334 9.54819L15.3637 10.0785ZM15.3637 14.7067L14.8334 14.1763L15.3637 14.7067ZM5.96276 4.53436C5.66987 4.82725 5.66986 5.30213 5.96276 5.59502C6.25565 5.88791 6.73053 5.88791 7.02342 5.59502L5.96276 4.53436ZM12.905 11.4766C12.6121 11.7695 12.6121 12.2443 12.905 12.5372C13.1979 12.8301 13.6727 12.8301 13.9656 12.5372L12.905 11.4766ZM3.263 2.60597L2.10597 3.763L3.16663 4.82366L4.32366 3.66663L3.263 2.60597ZM14.737 16.394L15.894 15.237L14.8334 14.1763L13.6763 15.3334L14.737 16.394ZM9.04819 16.394C9.57863 16.9245 10.0287 17.3768 10.4355 17.6872C10.8597 18.0108 11.3238 18.25 11.8926 18.25V16.75C11.7836 16.75 11.6361 16.7165 11.3454 16.4947C11.0374 16.2596 10.6693 15.8938 10.1088 15.3334L9.04819 16.394ZM13.6763 15.3334C13.1159 15.8938 12.7478 16.2596 12.4398 16.4947C12.1491 16.7165 12.0016 16.75 11.8926 16.75V18.25C12.4614 18.25 12.9255 18.0108 13.3497 17.6872C13.7565 17.3768 14.2066 16.9245 14.737 16.394L13.6763 15.3334ZM2.10597 3.763C1.57553 4.29344 1.12322 4.7435 0.812809 5.15034C0.489191 5.5745 0.25 6.0386 0.25 6.60741H1.75C1.75 6.49844 1.78353 6.35094 2.00534 6.06022C2.24036 5.75218 2.6062 5.38409 3.16663 4.82366L2.10597 3.763ZM3.16663 8.39115C2.6062 7.83073 2.24036 7.46263 2.00534 7.1546C1.78353 6.86388 1.75 6.71638 1.75 6.60741H0.25C0.25 7.17622 0.489191 7.64032 0.812809 8.06447C1.12322 8.47132 1.57553 8.92137 2.10597 9.45181L3.16663 8.39115ZM8.95181 2.60597C8.42137 2.07553 7.97132 1.62322 7.56447 1.31281C7.14032 0.989191 6.67622 0.75 6.10741 0.75V2.25C6.21638 2.25 6.36388 2.28353 6.6546 2.50534C6.96263 2.74036 7.33073 3.1062 7.89115 3.66663L8.95181 2.60597ZM4.32366 3.66663C4.88409 3.1062 5.25218 2.74036 5.56022 2.50534C5.85094 2.28353 5.99844 2.25 6.10741 2.25V0.75C5.5386 0.75 5.0745 0.989191 4.65034 1.31281C4.2435 1.62322 3.79344 2.07553 3.263 2.60597L4.32366 3.66663ZM14.8334 10.6088C15.3938 11.1693 15.7596 11.5374 15.9947 11.8454C16.2165 12.1361 16.25 12.2836 16.25 12.3926H17.75C17.75 11.8238 17.5108 11.3597 17.1872 10.9355C16.8768 10.5287 16.4245 10.0786 15.894 9.54819L14.8334 10.6088ZM15.894 15.237C16.4245 14.7066 16.8768 14.2565 17.1872 13.8497C17.5108 13.4255 17.75 12.9614 17.75 12.3926H16.25C16.25 12.5016 16.2165 12.6491 15.9947 12.9398C15.7596 13.2478 15.3938 13.6159 14.8334 14.1763L15.894 15.237ZM7.89115 2.60597L5.96276 4.53436L7.02342 5.59502L8.95181 3.66663L7.89115 2.60597ZM14.8334 9.54819L12.905 11.4766L13.9656 12.5372L15.894 10.6088L14.8334 9.54819Z" fill="#FF7337"/>
<path d="M10.8881 3.16293L11.6296 2.42142C12.8581 1.19286 14.85 1.19286 16.0786 2.42142C17.3071 3.64999 17.3071 5.64188 16.0786 6.87044L15.3371 7.61195M10.8881 3.16293C10.8881 3.16293 10.9807 4.73862 12.3711 6.12894C13.7614 7.51926 15.3371 7.61195 15.3371 7.61195M10.8881 3.16293L4.07106 9.97992C3.60933 10.4416 3.37846 10.6725 3.17992 10.9271C2.94571 11.2273 2.74491 11.5522 2.58107 11.896C2.44219 12.1874 2.33894 12.4972 2.13245 13.1167L1.47133 15.1L1.25745 15.7417M15.3371 7.61195L8.52008 14.4289C8.05835 14.8907 7.82749 15.1215 7.57293 15.3201C7.27265 15.5543 6.94775 15.7551 6.60398 15.9189C6.31256 16.0578 6.00282 16.1611 5.38334 16.3675L3.4 17.0287L2.75834 17.2426M2.75834 17.2426L2.11667 17.4564C1.81182 17.5581 1.47573 17.4787 1.2485 17.2515C1.02128 17.0243 0.941942 16.6882 1.04356 16.3833L1.25745 15.7417M2.75834 17.2426L1.25745 15.7417" stroke="#FF7337" stroke-width="1.5"/>
</svg>
