<svg width="159" height="28" viewBox="0 0 159 28" fill="none" xmlns="http://www.w3.org/2000/svg">
<path d="M15.4886 7.36364C15.3352 6.06818 14.7131 5.0625 13.6222 4.34659C12.5313 3.63068 11.1932 3.27273 9.60795 3.27273C8.44886 3.27273 7.43466 3.46023 6.56534 3.83523C5.70455 4.21023 5.03125 4.72585 4.54545 5.3821C4.06818 6.03835 3.82955 6.78409 3.82955 7.61932C3.82955 8.31818 3.99574 8.91903 4.32812 9.42188C4.66903 9.91619 5.10369 10.3295 5.6321 10.6619C6.16051 10.9858 6.71449 11.2543 7.29403 11.4673C7.87358 11.6719 8.40625 11.8381 8.89205 11.9659L11.5511 12.6818C12.233 12.8608 12.9915 13.108 13.8267 13.4233C14.6705 13.7386 15.4759 14.169 16.2429 14.7145C17.0185 15.2514 17.6577 15.9418 18.1605 16.7855C18.6634 17.6293 18.9148 18.6648 18.9148 19.892C18.9148 21.3068 18.544 22.5852 17.8026 23.7273C17.0696 24.8693 15.9957 25.777 14.581 26.4503C13.1747 27.1236 11.4659 27.4602 9.45455 27.4602C7.57955 27.4602 5.95597 27.1577 4.58381 26.5526C3.22017 25.9474 2.14631 25.1037 1.36222 24.0213C0.586648 22.9389 0.147727 21.6818 0.0454546 20.25H3.31818C3.40341 21.2386 3.7358 22.0568 4.31534 22.7045C4.90341 23.3437 5.64489 23.821 6.53977 24.1364C7.44318 24.4432 8.41477 24.5966 9.45455 24.5966C10.6648 24.5966 11.7514 24.4006 12.7145 24.0085C13.6776 23.608 14.4403 23.054 15.0028 22.3466C15.5653 21.6307 15.8466 20.7955 15.8466 19.8409C15.8466 18.9716 15.6037 18.2642 15.1179 17.7188C14.6321 17.1733 13.9929 16.7301 13.2003 16.3892C12.4077 16.0483 11.5511 15.75 10.6307 15.4943L7.40909 14.5739C5.36364 13.9858 3.74432 13.1463 2.55114 12.0554C1.35795 10.9645 0.761364 9.53693 0.761364 7.77273C0.761364 6.30682 1.15767 5.02841 1.95028 3.9375C2.75142 2.83807 3.82528 1.98579 5.17188 1.38068C6.52699 0.767045 8.03977 0.460226 9.71023 0.460226C11.3977 0.460226 12.8977 0.762783 14.2102 1.3679C15.5227 1.96449 16.5625 2.78267 17.3295 3.82244C18.1051 4.86221 18.5142 6.04261 18.5568 7.36364H15.4886ZM22.3275 27V0.818181H38.1286V3.63068H25.4979V12.4773H37.3104V15.2898H25.4979V24.1875H38.3332V27H22.3275ZM77.4989 27V0.818181H80.6693V24.1875H92.8398V27H77.4989ZM117.02 13.9091C117.02 16.6705 116.522 19.0568 115.525 21.0682C114.527 23.0795 113.159 24.6307 111.421 25.7216C109.682 26.8125 107.696 27.358 105.463 27.358C103.23 27.358 101.245 26.8125 99.5061 25.7216C97.7674 24.6307 96.3995 23.0795 95.4024 21.0682C94.4052 19.0568 93.9066 16.6705 93.9066 13.9091C93.9066 11.1477 94.4052 8.76136 95.4024 6.75C96.3995 4.73864 97.7674 3.1875 99.5061 2.09659C101.245 1.00568 103.23 0.460226 105.463 0.460226C107.696 0.460226 109.682 1.00568 111.421 2.09659C113.159 3.1875 114.527 4.73864 115.525 6.75C116.522 8.76136 117.02 11.1477 117.02 13.9091ZM113.952 13.9091C113.952 11.642 113.573 9.72869 112.814 8.16903C112.064 6.60938 111.046 5.42898 109.759 4.62784C108.48 3.8267 107.049 3.42614 105.463 3.42614C103.878 3.42614 102.442 3.8267 101.155 4.62784C99.8768 5.42898 98.8583 6.60938 98.0998 8.16903C97.3498 9.72869 96.9748 11.642 96.9748 13.9091C96.9748 16.1761 97.3498 18.0895 98.0998 19.6491C98.8583 21.2088 99.8768 22.3892 101.155 23.1903C102.442 23.9915 103.878 24.392 105.463 24.392C107.049 24.392 108.48 23.9915 109.759 23.1903C111.046 22.3892 112.064 21.2088 112.814 19.6491C113.573 18.0895 113.952 16.1761 113.952 13.9091ZM120.551 27V0.818181H129.705C131.529 0.818181 133.033 1.13352 134.217 1.7642C135.402 2.38636 136.284 3.22585 136.864 4.28267C137.443 5.33096 137.733 6.49432 137.733 7.77273C137.733 8.89773 137.533 9.8267 137.132 10.5597C136.74 11.2926 136.22 11.8722 135.573 12.2983C134.933 12.7244 134.239 13.0398 133.489 13.2443V13.5C134.29 13.5511 135.095 13.8324 135.905 14.3438C136.715 14.8551 137.392 15.5881 137.938 16.5426C138.483 17.4972 138.756 18.6648 138.756 20.0455C138.756 21.358 138.457 22.5384 137.861 23.5866C137.264 24.6349 136.323 25.4659 135.036 26.0795C133.749 26.6932 132.074 27 130.011 27H120.551ZM123.722 24.1875H130.011C132.082 24.1875 133.553 23.7869 134.422 22.9858C135.3 22.1761 135.739 21.196 135.739 20.0455C135.739 19.1591 135.513 18.3409 135.061 17.5909C134.609 16.8324 133.966 16.2273 133.131 15.7756C132.296 15.3153 131.307 15.0852 130.165 15.0852H123.722V24.1875ZM123.722 12.3239H129.602C130.557 12.3239 131.418 12.1364 132.185 11.7614C132.96 11.3864 133.574 10.858 134.026 10.1761C134.486 9.49432 134.716 8.69318 134.716 7.77273C134.716 6.62216 134.315 5.64631 133.514 4.84517C132.713 4.03551 131.443 3.63068 129.705 3.63068H123.722V12.3239ZM142.165 27V0.818181H157.966V3.63068H145.336V12.4773H157.148V15.2898H145.336V24.1875H158.171V27H142.165Z" fill="#27292F"/>
<path d="M64.134 13.9091C64.134 16.6705 63.6354 19.0568 62.6383 21.0682C61.6411 23.0795 60.2732 24.6307 58.5346 25.7216C56.796 26.8125 54.8102 27.358 52.5772 27.358C50.3442 27.358 48.3585 26.8125 46.6198 25.7216C44.8812 24.6307 43.5133 23.0795 42.5161 21.0682C41.519 19.0568 41.0204 16.6705 41.0204 13.9091C41.0204 11.1477 41.519 8.76136 42.5161 6.75C43.5133 4.73864 44.8812 3.1875 46.6198 2.09659C48.3585 1.00568 50.3442 0.460226 52.5772 0.460226C54.8102 0.460226 56.796 1.00568 58.5346 2.09659C60.2732 3.1875 61.6411 4.73864 62.6383 6.75C63.6354 8.76136 64.134 11.1477 64.134 13.9091ZM61.0658 13.9091C61.0658 11.642 60.6866 9.72869 59.9281 8.16903C59.1781 6.60938 58.1596 5.42898 56.8727 4.62784C55.5942 3.8267 54.1624 3.42614 52.5772 3.42614C50.992 3.42614 49.5559 3.8267 48.269 4.62784C46.9906 5.42898 45.9721 6.60938 45.2136 8.16903C44.4636 9.72869 44.0886 11.642 44.0886 13.9091C44.0886 16.1761 44.4636 18.0895 45.2136 19.6491C45.9721 21.2088 46.9906 22.3892 48.269 23.1903C49.5559 23.9915 50.992 24.392 52.5772 24.392C54.1624 24.392 55.5942 23.9915 56.8727 23.1903C58.1596 22.3892 59.1781 21.2088 59.9281 19.6491C60.6866 18.0895 61.0658 16.1761 61.0658 13.9091ZM70.4427 9C70.1615 8.1392 69.7907 7.3679 69.3305 6.68608C68.8788 5.99574 68.3376 5.40767 67.7069 4.92188C67.0848 4.43608 66.3774 4.06534 65.5848 3.80966C64.7921 3.55398 63.9228 3.42614 62.9768 3.42614C61.4257 3.42614 60.0152 3.8267 58.7453 4.62784C57.4754 5.42898 56.4654 6.60938 55.7154 8.16903C54.9654 9.72869 54.5904 11.642 54.5904 13.9091C54.5904 16.1761 54.9697 18.0895 55.7282 19.6491C56.4867 21.2088 57.5137 22.3892 58.8092 23.1903C60.1046 23.9915 61.562 24.392 63.1813 24.392C64.6813 24.392 66.0024 24.0724 67.1444 23.4332C68.295 22.7855 69.1899 21.8736 69.8291 20.6974C70.4768 19.5128 70.8007 18.1193 70.8007 16.517L71.7723 16.7216H63.8973V13.9091H73.8688V16.7216C73.8688 18.8778 73.4086 20.7528 72.4882 22.3466C71.5762 23.9403 70.3149 25.1761 68.7041 26.054C67.1018 26.9233 65.2609 27.358 63.1813 27.358C60.8632 27.358 58.8262 26.8125 57.0706 25.7216C55.3234 24.6307 53.9598 23.0795 52.9796 21.0682C52.0081 19.0568 51.5223 16.6705 51.5223 13.9091C51.5223 11.8381 51.7992 9.97585 52.3532 8.32244C52.9157 6.66051 53.7083 5.24574 54.7311 4.07812C55.7538 2.91051 56.964 2.01563 58.3617 1.39347C59.7595 0.771306 61.2978 0.460226 62.9768 0.460226C64.3575 0.460226 65.6444 0.669033 66.8376 1.08665C68.0393 1.49574 69.1089 2.07954 70.0464 2.83807C70.9924 3.58807 71.7808 4.48721 72.4115 5.53551C73.0421 6.57528 73.4768 7.73011 73.7154 9H70.4427Z" fill="#F2F2F2"/>
<path d="M64.134 13.9091C64.134 16.6705 63.6354 19.0568 62.6383 21.0682C61.6411 23.0795 60.2732 24.6307 58.5346 25.7216C56.796 26.8125 54.8102 27.358 52.5772 27.358C50.3442 27.358 48.3585 26.8125 46.6198 25.7216C44.8812 24.6307 43.5133 23.0795 42.5161 21.0682C41.519 19.0568 41.0204 16.6705 41.0204 13.9091C41.0204 11.1477 41.519 8.76136 42.5161 6.75C43.5133 4.73864 44.8812 3.1875 46.6198 2.09659C48.3585 1.00568 50.3442 0.460226 52.5772 0.460226C54.8102 0.460226 56.796 1.00568 58.5346 2.09659C60.2732 3.1875 61.6411 4.73864 62.6383 6.75C63.6354 8.76136 64.134 11.1477 64.134 13.9091ZM61.0658 13.9091C61.0658 11.642 60.6866 9.72869 59.9281 8.16903C59.1781 6.60938 58.1596 5.42898 56.8727 4.62784C55.5942 3.8267 54.1624 3.42614 52.5772 3.42614C50.992 3.42614 49.5559 3.8267 48.269 4.62784C46.9906 5.42898 45.9721 6.60938 45.2136 8.16903C44.4636 9.72869 44.0886 11.642 44.0886 13.9091C44.0886 16.1761 44.4636 18.0895 45.2136 19.6491C45.9721 21.2088 46.9906 22.3892 48.269 23.1903C49.5559 23.9915 50.992 24.392 52.5772 24.392C54.1624 24.392 55.5942 23.9915 56.8727 23.1903C58.1596 22.3892 59.1781 21.2088 59.9281 19.6491C60.6866 18.0895 61.0658 16.1761 61.0658 13.9091ZM70.4427 9C70.1615 8.1392 69.7907 7.3679 69.3305 6.68608C68.8788 5.99574 68.3376 5.40767 67.7069 4.92188C67.0848 4.43608 66.3774 4.06534 65.5848 3.80966C64.7921 3.55398 63.9228 3.42614 62.9768 3.42614C61.4257 3.42614 60.0152 3.8267 58.7453 4.62784C57.4754 5.42898 56.4654 6.60938 55.7154 8.16903C54.9654 9.72869 54.5904 11.642 54.5904 13.9091C54.5904 16.1761 54.9697 18.0895 55.7282 19.6491C56.4867 21.2088 57.5137 22.3892 58.8092 23.1903C60.1046 23.9915 61.562 24.392 63.1813 24.392C64.6813 24.392 66.0024 24.0724 67.1444 23.4332C68.295 22.7855 69.1899 21.8736 69.8291 20.6974C70.4768 19.5128 70.8007 18.1193 70.8007 16.517L71.7723 16.7216H63.8973V13.9091H73.8688V16.7216C73.8688 18.8778 73.4086 20.7528 72.4882 22.3466C71.5762 23.9403 70.3149 25.1761 68.7041 26.054C67.1018 26.9233 65.2609 27.358 63.1813 27.358C60.8632 27.358 58.8262 26.8125 57.0706 25.7216C55.3234 24.6307 53.9598 23.0795 52.9796 21.0682C52.0081 19.0568 51.5223 16.6705 51.5223 13.9091C51.5223 11.8381 51.7992 9.97585 52.3532 8.32244C52.9157 6.66051 53.7083 5.24574 54.7311 4.07812C55.7538 2.91051 56.964 2.01563 58.3617 1.39347C59.7595 0.771306 61.2978 0.460226 62.9768 0.460226C64.3575 0.460226 65.6444 0.669033 66.8376 1.08665C68.0393 1.49574 69.1089 2.07954 70.0464 2.83807C70.9924 3.58807 71.7808 4.48721 72.4115 5.53551C73.0421 6.57528 73.4768 7.73011 73.7154 9H70.4427Z" fill="url(#paint0_diamond_2001_606)"/>
<defs>
<radialGradient id="paint0_diamond_2001_606" cx="0" cy="0" r="1" gradientUnits="userSpaceOnUse" gradientTransform="translate(-89.2714 -57.4375) rotate(24.0465) scale(275.15 92.3246)">
<stop stop-color="#FFCA8C"/>
<stop offset="1" stop-color="#FF7337"/>
</radialGradient>
</defs>
</svg>
